<svg id="Laag_1" data-name="Laag 1" xmlns="http://www.w3.org/2000/svg" viewBox="0 0 75.77 77.41"><title>square</title><path d="M51.13,74l-.08.15,0,.07,5-2.42.07.14a32.52,32.52,0,0,1-3.51,1.84c-1.18.62-2.45,1.08-3.68,1.65a2.72,2.72,0,0,1,.38-.11,1.1,1.1,0,0,1,.25,0c-.07.08-.12.18-.2.22a6.9,6.9,0,0,1-.8.29l-2.12.67a.84.84,0,0,1-.16,0l0-.26c0,.41-.29.42-.53.49-.89.25-1.77.53-2.66.73s-2,.37-3,.5a24.15,24.15,0,0,1-2.69.19c-.68,0-1.37-.13-2.06-.16S33.81,78,33,78c.09.17.19.28.37.13s.28,0,.45,0a4.31,4.31,0,0,0,1.12.45c.72.15,1.45.22,2.17.31.21,0,.43,0,.64,0,.06,0,.12.09.18.14a.5.5,0,0,1-.21.1A16.32,16.32,0,0,1,34,79c-1.22-.18-2.43-.43-3.64-.69-1.47-.32-2.94-.66-4.39-1-1-.27-2-.63-3-1a7.65,7.65,0,0,1-1-.44.55.55,0,0,1-.25-.31.67.67,0,0,0-.53-.47c-1.1-.37-2.2-.74-3.29-1.14-.41-.14-.79-.36-1.2-.53-.71-.29-1.43-.56-2.15-.83-.07,0-.16,0-.19-.09-.33-.63-1-.55-1.56-.85-.32-.19-.65-.34-1-.5a3,3,0,0,0-.32-.11c.18-.35.49-.1.72-.11a9.74,9.74,0,0,1,1.32.08,3,3,0,0,0,.32,0L13,70.57l0-.08.21,0a2.94,2.94,0,0,1,.58-.1c.5,0,1,0,1.5,0s.9-.1,1.35-.12,1.2,0,1.79,0h.21a1.82,1.82,0,0,1-.37-.18.53.53,0,0,1-.18-.29c0-.06.15-.17.24-.18.29,0,.59,0,.88-.07.11,0,.27.09.26-.18,0-.08.34-.25.53-.25.68,0,1.35,0,2,.07a10.42,10.42,0,0,1,1.38.2c1.17.22,2.35.43,3.51.7s2.14.57,3.22.84c.65.17,1.32.29,2,.44.43.09.85.22,1.28.31s.86.16,1.3.24c.9.14,1.81.32,2.72.42a18.23,18.23,0,0,0,6.33-.34q1.41-.34,2.82-.72a5.52,5.52,0,0,0,.71-.28c.39-.17.76-.39,1.16-.52a13.79,13.79,0,0,1,1.76-.77,4.14,4.14,0,0,0,.92-.5c.54-.27,1.09-.52,1.62-.82s1.07-.66,1.61-1,1-.52,1.41-.8c.26-.15.51-.33.75-.5.48-.35.94-.72,1.43-1.06a2.61,2.61,0,0,1,.5-.19c0-.3.31-.4.53-.57.46-.38.91-.78,1.39-1.13a8,8,0,0,0,.87-.77c.39-.39.82-.74,1.24-1.11a.77.77,0,0,1,.24-.06.37.37,0,0,1,.23-.48,2.72,2.72,0,0,0,.6-.62c.44-.49.86-1,1.31-1.47.1-.1.3-.11.46-.17a1.15,1.15,0,0,1,.35-.91c.27-.25.6-.45.68-.85v0c.5-.26.64-.8.93-1.22s.58-.93.87-1.39l.47-.75c.3-.49.62-1,.89-1.48.38-.74.72-1.51,1.07-2.27.28-.61.57-1.21.79-1.84.32-.91.61-1.84.86-2.78a11.33,11.33,0,0,0,.18-1.44.33.33,0,0,1,0-.1c.39-.61.17-1.33.33-2a9.08,9.08,0,0,0,.08-1.81c0-.72.06-1.43.07-2.15a5.71,5.71,0,0,0-.08-.71c-.07-.58-.18-1.16-.2-1.74s-.32-1.21-.27-1.81-.3-.83-.2-1.31c0-.22-.15-.49-.22-.75s-.09-.41-.15-.62c-.11-.36-.23-.73-.35-1.1s-.36-1-.52-1.52c0-.1,0-.22,0-.3-.15-.32-.31-.63-.44-1a7.53,7.53,0,0,0-.87-1.78,4.08,4.08,0,0,1-.26-.64c-.05-.11-.19-.18-.25-.28-.33-.59-.64-1.2-1-1.78a9.47,9.47,0,0,0-.64-.92c-.52-.72-1-1.44-1.58-2.14-.27-.36-.58-.7-.88-1a9.41,9.41,0,0,1-.88-.91,11,11,0,0,0-1.88-1.91c-.44-.38-.9-.74-1.34-1.13-.27-.23-.5-.51-.76-.76s-.3-.17-.42-.28-.5-.46-.76-.67a3.71,3.71,0,0,0-.4-.19c-.32-.18-.63-.37-.94-.57-.49-.29-1-.6-1.45-.9l-.56-.35c-.33-.22-.64-.46-1-.65a9.54,9.54,0,0,0-.91-.44L50.32,7.74a16.62,16.62,0,0,0-3.71-1.15c-.75-.15-1.49-.31-2.24-.45a20.38,20.38,0,0,0-3.82-.31c-.86,0-1.72,0-2.58.08s-1.85.11-2.77.21-1.6.21-2.39.35c-.59.11-1.16.29-1.74.42-.34.08-.7.12-1.05.2-.2,0-.39.14-.59.21-.71.25-1.42.48-2.12.74-.34.13-.65.32-1,.47a.6.6,0,0,1-.29.08c-.37,0-.56.33-.94.38-.13-.12-.25-.13-.39.13s-.37.22-.56.33-.45.28-.69.39a1.88,1.88,0,0,1-.48.06,1.67,1.67,0,0,1-1.09.66c-.17.43-.58.54-.95.69a.8.8,0,0,0-.19.13s0,.12-.06.12c-.44,0-.53.58-1,.53,0,0-.09.08-.13.13s-.11.18-.15.17c-.37,0-.45.37-.74.49a3.59,3.59,0,0,0-.82.6c-.26.21-.49.46-.74.67-.53.47-1.09.9-1.6,1.39s-.93,1-1.39,1.55-.71.76-1.06,1.16-.47.57-.69.86a6.58,6.58,0,0,0-.53.77c-.3.54-.72,1-1.06,1.49-.43.66-.81,1.35-1.2,2a10.15,10.15,0,0,1-.45.94A23.8,23.8,0,0,0,8.1,26.5c-.13.25-.2.54-.34.78s0,.62-.34.78c.12.56-.33,1-.37,1.52a6.94,6.94,0,0,1-.4,1.19,5,5,0,0,0-.16.77c-.13.73-.26,1.46-.36,2.19-.06.51,0,1-.1,1.56a7,7,0,0,1-.14.75s.14.06.14.09a1.51,1.51,0,0,1,0,.52,4.69,4.69,0,0,0,0,1.79A2.34,2.34,0,0,1,6,39c0,.06-.15.1-.25.13a.58.58,0,0,1-.24,0c0,.07.06.1.07.1.16,0,.42,0,.46.14a3.62,3.62,0,0,1,.15.81s0,.08,0,.12l0,.27c-.14.5.17,1,0,1.53l-.22-1.23h0l0,1H5.72l-.16-1-.14,0c.18,1,.34,2,.54,3,.15.74.34,1.48.55,2.21.15.56.36,1.12.55,1.68,0,.08.12.15.16.24s.27.4-.14.62l.51-.09v.8l.36.06c0,.12.09.29.14.46a.21.21,0,0,1,0,.11l-.16.23c.09,0,.2,0,.26,0s.34.27.16.55l-.07-.18-.11.08L9,52.41l-.18.28-.47-.28.24-.09c-.46-.17-.47-.46-.18-.83H8.32a.43.43,0,0,1,0,.07v.22l-.57-.63.42-.2c-.07,0-.18-.13-.19-.12-.24.27-.31,0-.41-.13s0,0-.06,0c.23-.36-.32-.57-.16-.92H7.1v-.33l-.35-.13c0-.14.37-.3,0-.45a1.32,1.32,0,0,1,.06-.29l-.52.06,0-.09.31-.28s-.1-.14-.13-.13c-.37.14-.3-.13-.36-.34a4.08,4.08,0,0,0-.29-.6l.28-.06-.43-.38.08-.1.27.18.11-.38-.54,0a2.75,2.75,0,0,1-.12-.58.87.87,0,0,1,.16-.42c.12-.24,0-.38-.21-.52l.14.56c-.25.07-.4-.09-.36-.39s.05-.57-.31-.71l-.13.3-.18-.82.11,0c0,.09,0,.19.08.28a1.15,1.15,0,0,0,.14.19l.18-.21a.75.75,0,0,1-.15-.09c0-.06-.13-.15-.12-.21.11-.48.11-.48-.42-.54,0-.38-.09-.77-.15-1.16s-.17-.66-.22-1-.07-.81-.12-1.21a.68.68,0,0,0-.09-.23.15.15,0,0,0,.06,0l.22-.22c0,.13,0,.27.08.39a1.42,1.42,0,0,0,.08.18l.08,0L4.1,35.5h0v3.87c-.14.06-.23,0-.23-.23,0-1.06-.07-2.13-.08-3.2,0-.66,0-1.33,0-2A2.06,2.06,0,0,1,4,33.49a.38.38,0,0,1,0-.55c.09-.12,0-.34.05-.51s0-.39,0-.58,0-.32,0-.53c.29-.17.18-.48.07-.78H4a2.5,2.5,0,0,0,.32-1.45c-.06.28-.12.56-.2.83a.77.77,0,0,1-.19.22c0-.09-.11-.19-.09-.28A4.66,4.66,0,0,1,4,29c.08-.27.23-.53.31-.81a1,1,0,0,0,0-.39c0-.31.3-.53.26-.86,0-.07.25-.16.38-.24l.16.29.1,0,.09-.67-.23-.06-.23.34-.09,0a.6.6,0,0,1,0-.23c.09-.29.19-.57.3-.85,0-.06.11-.15.13-.14.29.11.33-.28.58-.28.09,0,.18-.11.3-.2l-.35-.12c.08-.17.14-.34.22-.49.23-.47.46-.93.7-1.39s.4-.75.61-1.12.44-.69.64-1.05.5-.9.76-1.35.43-.67.63-1c.1-.17.1-.43.4-.42,0,0,.07-.11.1-.17a6.25,6.25,0,0,1,.24-.6s.2,0,.36,0l-.12-.47-.35.23-.15-.24c0-.08,0-.17,0-.22a6.33,6.33,0,0,1,.34-.58l.22.66.26-.12a.69.69,0,0,1-.2-.93l.18.2.19-.2a3,3,0,0,1,.25-.37c.4-.41.83-.82,1.24-1.23.18-.19.31-.41.5-.58.35-.34.73-.65,1.1-1l.44-.38c.39-.31.8-.61,1.19-.94.2-.18.35-.44.55-.62.44-.39.88-.76,1.35-1.11A2.18,2.18,0,0,1,18,9.12l.07.15-.38.32c.27.14.4-.49.68-.1l.07-.34h0a.77.77,0,0,0,.28-.1c.19-.15.36-.35.56-.16l.1-.29h0c.24-.13.48-.26.7-.4s.25-.1.08-.24a.55.55,0,0,1,.08-.13s.08.08.09.13a1.67,1.67,0,0,1,0,.31l.12,0L20.37,8l.3,0-.3-.3c.15-.18.41-.14.67.11l.63-.36.1-.08a2.37,2.37,0,0,1,.47-.25,2.69,2.69,0,0,1,.57,0c.09-.62.78-.46,1.17-.73a2.2,2.2,0,0,1,.69-.33c.39-.1.71-.47,1.17-.34.12-.31.43-.26.69-.31,0,0,.1,0,.12,0,.16-.28.38-.32.57-.21,1.19-.54,2.4-.77,3.55-1.22L30,4.12,30,4c.23-.07.45-.15.68-.2s.66-.14,1-.21a4.54,4.54,0,0,1,.51-.09c.07,0,.14.08.21.13l.09.07c.07-.12.11-.25.17-.26.54-.09,1.08-.15,1.62-.22s.82-.14,1.23-.19A4.46,4.46,0,0,1,36,3L36,3c.22-.05.4-.1.59-.13a.55.55,0,0,1,.22,0,3.44,3.44,0,0,0,.63.1A3.86,3.86,0,0,0,38,2.76a.87.87,0,0,1,.41.07c.28-.06.55-.22.85,0a.23.23,0,0,0,.18,0c.41-.3.86,0,1.28-.08,0,0,.09.16.19.25l0-.26c.38.06.74.14,1.11.17s.7,0,1,0c.74.06,1.48.15,2.22.26,1,.15,2,.32,3,.5.62.11,1.24.23,1.86.39.29.08.55.26.84.35a4.28,4.28,0,0,0,.75,0l0,.16.3-.08.2.22c.08,0,.16-.1.21-.08.73.26,1.45.52,2.18.8.07,0,.13.11.2.15a1.51,1.51,0,0,0,.35.14A2.93,2.93,0,0,1,56,6c.13.09.2.19.38.17a.5.5,0,0,1,.37.14c.12,0,.3,0,.38.4l.4-.27-.17-.37a1.05,1.05,0,0,1,.36,0c.44.22.86.46,1.29.69a4,4,0,0,1,.41.22.61.61,0,0,1,.15.26l-.34.12,0,.19.37-.06.33-.23L60,7.7c.16-.13.32,0,.54.12.38.29.82.49,1.22.75a5.17,5.17,0,0,1,.6.49,4.08,4.08,0,0,1,.87.55c.23.23.51.35.74.56.51.48,1,.93,1.58,1.39.13.11.3.17.43.29.64.56,1.28,1.12,1.9,1.71.37.36.69.76,1,1.15l.08-.07-.39-.49c-.22-.27-.44-.54-.65-.82,0-.05,0-.16,0-.24s.21,0,.26.05c.38.42.77.85,1.13,1.3.6.76,1.2,1.52,1.78,2.29.39.53.74,1.09,1.1,1.64.26.4.5.81.74,1.22.36.62.73,1.25,1.08,1.88.22.39.42.8.64,1.19a3.72,3.72,0,0,0,.34.47l.16.43a.57.57,0,0,0,.49.62l-.07.21.08,0a2.56,2.56,0,0,1,.3.76,1.6,1.6,0,0,0,.18.6,8.36,8.36,0,0,1,.27.89c.27.84.55,1.68.82,2.53.16.52.32,1.05.45,1.58.18.7.33,1.4.49,2.11a1.08,1.08,0,0,1,0,.31l-.33-.08a.38.38,0,0,0,0,.17c.09.69.22,1.37.27,2.06s0,1.3,0,1.95,0,1.08,0,1.61c0,.31,0,.62,0,.93,0,.13,0,.27,0,.39a7.74,7.74,0,0,0-.15,1.65,7.85,7.85,0,0,1-.12,1.46c0,.21-.14.42-.17.63s0,.65-.07,1c-.12.7-.26,1.4-.42,2.09A9.45,9.45,0,0,1,76.84,48a2.74,2.74,0,0,1-.28.41A2.1,2.1,0,0,1,76,50.1c-.1.37-.15.64-.24.88-.22.55-.45,1.11-.71,1.64-.37.76-.77,1.51-1.18,2.25-.26.48-.54,1-.82,1.43s-.68,1.11-1.06,1.63-.82,1-1.22,1.54a2.32,2.32,0,0,0-.22.41c-.48-.16-.23-.46-.1-.57.36-.3.49-.75.79-1.09a1.12,1.12,0,0,1,.22-.16,1.31,1.31,0,0,1,.09-.34c.17-.28.36-.55.55-.83s.13-.35.39-.3c0,0,.13-.15.11-.21-.1-.32.08-.5.29-.7A5.79,5.79,0,0,0,73.3,55a11.77,11.77,0,0,0,.81-1.58,1.59,1.59,0,0,1,.26-.32c0-.13.07-.28.12-.42.17-.42.34-.83.52-1.24.11-.24.23-.48.33-.72s.08-.36.14-.53c.16-.5.34-1,.51-1.49l-.09,0c-.13.24-.28.47-.39.72-.3.67-.56,1.36-.89,2s-.73,1.36-1.11,2c-.23.39-.49.76-.74,1.14-.55.84-1.1,1.68-1.66,2.51-.29.42-.61.82-.9,1.23s-.56.85-.87,1.25c-.67.87-1.37,1.73-2.06,2.6-.13.16-.26.36-.5.17,0,.11.09.28.07.29a1.27,1.27,0,0,1-.36.11c.09.36-.15.62-.6.58a.44.44,0,0,0-.47.29,2.93,2.93,0,0,1-.38.49v.12a1.12,1.12,0,0,0-.25.11c-.14.08-.27.17-.43.28s-.27.33-.44.49a6,6,0,0,1-.86.74,7.19,7.19,0,0,0-.77.68c-.33.25-.69.46-1,.7-.11.08-.19.21-.3.29-.33.26-.66.51-1,.75a.89.89,0,0,1-.32.08,1.15,1.15,0,0,1-.21.27c-.29.2-.6.38-.9.57s-.63.46-1,.67-.88.59-1.34.85c-.84.46-1.68.89-2.53,1.33s-1.49.75-2.24,1.11c-.29.13-.6.19-.89.31s-.24.2-.38.26c-.47.21-1,.39-1.44.59s-.87.38-1.31.54-.8.27-1.21.38-.94.25-1.41.36c-.63.15-1.26.29-1.88.45s-1,.27-1.49.41l0,.09a10.85,10.85,0,0,1,1.26-.16,3.61,3.61,0,0,0,.8-.07c.44-.1.89-.12,1.33-.22s.69-.23,1-.34l2-.65a1.68,1.68,0,0,1,.39,0s0,0,0,0c0-.37.39-.14.55-.33s.36-.36.6-.06c0,0,.15,0,.23,0l-.07-.1c.08-.1.14-.24.24-.29a6.81,6.81,0,0,1,.92-.41,1.13,1.13,0,0,1,.44,0ZM5.44,35.66c0,.06-.11.12-.12.18,0,.39,0,.77,0,1.16H5.4c0-.44,0-.89,0-1.35l.13-1.29H5.44ZM41.63,3.49l-.82-.19.07.44.23-.3.15.21.38-.17c0,.2.14.27.33.15a.38.38,0,0,1,.21,0c.54.06,1.07.13,1.61.21A13.76,13.76,0,0,0,45.22,4c.28,0,.53,0,.73.18a2.73,2.73,0,0,1,.5.06,3,3,0,0,0,.42,0V4.21a.77.77,0,0,0-.25-.1c-.51-.06-1-.26-1.51-.3l-.48-.09c-.66-.08-1.33-.17-2-.23C42.31,3.46,42,3.49,41.63,3.49ZM67.14,60.83l-5.26,4.93A24.9,24.9,0,0,0,67.14,60.83ZM25.34,6.44l0-.05-.74.35c-.56.26-1.13.5-1.68.79a16.62,16.62,0,0,0-1.59.9c-.47.3-1,.56-1.46.84s-.57.56-.94.72ZM9.14,19.79,8.4,21c-.25.4-.5.79-.73,1.2s-.45.87-.66,1.32-.37.83-.59,1.32l3.52-6-.28-.06c0,.05-.11.16-.09.24A.79.79,0,0,1,9.14,19.79ZM40.28,3.63c-.09-.34-.23-.34-.65-.13a1.41,1.41,0,0,0-.45-.07c-.12,0-.25,0-.38,0-.3,0-.6,0-.89,0s-.46,0-.69.08v.08ZM76.9,30.57l.12,0-.83-3.24-.13,0a1.84,1.84,0,0,0,0,.41,11.07,11.07,0,0,1,.43,1.54C76.57,29.74,76.9,30.09,76.9,30.57Zm-46.6-26,0,.12L32.64,4l0-.12ZM4.42,40.64H4.34l0,.73c.27.2.27.24,0,.39l.29.5-.28.12,0,.08.34,0ZM48.22,4l0,.49c.1-.07.23-.23.33-.22a7.19,7.19,0,0,1,.88.24,2.23,2.23,0,0,0,.27,0V4.5ZM10.41,17.77l.07.07,1-1.2-.11-.09Zm42-12.39,0,0,.67.47.34-.11Zm-36,5.73.28-.46-.54.09Zm-1.19,1.3.07.08.79-.66L16,11.74ZM47.19,75.92l0,.07,1-.28,0-.11Zm-4-71.1h-.74v.1C42.71,4.8,43,5.21,43.21,4.82ZM58,6.75l-.25.1a1.59,1.59,0,0,0,.2.07.61.61,0,0,0,.18,0c0-.08,0-.18-.07-.22a2.11,2.11,0,0,0-.33-.18l0,0ZM5.52,34.09l.12,0,.1-1.07H5.68ZM47.76,4.53v0L47,4.16c.07.12.1.25.16.27S47.55,4.5,47.76,4.53Z" transform="translate(-3.09 -1.8)"/><path d="M42.94,56.77,43,57c-.31,0-.63.07-.94.06a.34.34,0,0,1-.35-.42c-.6,0-1.2.07-1.8.07s-1.12.12-1.71.08l.1-.29c-.26.22-.46.63-.81.29l-.77.06a4,4,0,0,0-.76,0,4.3,4.3,0,0,1-1,0H32.53c-.13,0-.29.08-.37,0-.32-.19-.61,0-.91,0a4,4,0,0,1-.69,0,2.36,2.36,0,0,1-.33-.07c-.33,0-.62.08-.91.07s-.55-.11-.82-.15c-.08,0-.16.07-.26.11a.6.6,0,0,0-.18-.06c-.11,0-.23,0-.34,0s-.53-.2-.66-.11c-.34.23-.6-.13-.79-.06-.57.19-1.09-.06-1.64,0a18.14,18.14,0,0,1-2.07-.21l-.09.08a.74.74,0,0,1,.26.07c.07.05.17.14.16.21a.28.28,0,0,1-.18.2,1.42,1.42,0,0,1-.4-.08l-.24,0c-.21,0-.41,0-.61,0a1.86,1.86,0,0,0-.34,0c-.14-.16-.21-.26-.52-.1s-.71-.05-1.05-.16a11.06,11.06,0,0,1-1.68-.66,5.15,5.15,0,0,1-.89-.8,1.86,1.86,0,0,0-.19-.11,1,1,0,0,1-.24-.21s.11-.14.14-.22a2.64,2.64,0,0,0,.07-.3,1.9,1.9,0,0,0-.23-1.43,1.73,1.73,0,0,1-.09-1.58c.06-.11,0-.28,0-.46l.58-.14h0l-.17,1L18,49.91l-.05,0-.57.42h0c0-.14,0-.34.06-.42A11.73,11.73,0,0,1,18.48,49a1.3,1.3,0,0,1,.47-.13c-.18-.32.27-.36.42-.53a2,2,0,0,1,1-.68c.35,0,.41-.27.61-.4a14.07,14.07,0,0,1,1.31-.77s.13,0,.2.05l.23,0-.07-.27.9-.46c-.07-.09-.11-.2-.18-.23-.33-.15-.41-.49-.59-.75a2,2,0,0,0-.51-.46,1.08,1.08,0,0,1-.3-1.09c0-.17,0-.36,0-.53s0-.37.09-.47.14-.34.16-.54a3.1,3.1,0,0,1,.27-.93,2.67,2.67,0,0,1,.39-.53l-.09-.09a4,4,0,0,1-.36.35,1.8,1.8,0,0,1-.34.17s-.11-.09-.1-.11a.75.75,0,0,1,.19-.34,4.59,4.59,0,0,1,1.67-.9c.83-.19,1.66-.41,2.5-.57.59-.11,1.19-.16,1.78-.23l0,.1-.24.12,0,.08.78-.06-.33-.26c.14,0,.22,0,.24,0,.22.31.51.16.79.14.55,0,1.1-.05,1.64-.09.28,0,.56-.07.83-.09l1.43-.12a.4.4,0,0,0,.16-.07,8.66,8.66,0,0,0,1.1.06c.56,0,1.13-.09,1.69-.14.32,0,.64,0,1-.06L37.08,38l.4-.12-.21-.12a3,3,0,0,0,0-.58c-.07-.6-.14-1.21-.24-1.81s-.21-.92-.3-1.39-.19-1-.27-1.57a1.44,1.44,0,0,1,0-.32l-.17-.6c0-.12-.05-.25-.08-.38a1.34,1.34,0,0,1-.27.07l-1.13.08c-1,.07-2.1.13-3.15.22a.91.91,0,0,0-.47.18c-.48.35-.93.75-1.42,1.08a10.15,10.15,0,0,1-1.54.87c-1,.44-2.05.86-3.1,1.21A1.61,1.61,0,0,1,24,34.9a.68.68,0,0,1-.23-.14.47.47,0,0,0-.71.1.47.47,0,0,1-.38.16,11,11,0,0,1-2.41-.92,6.05,6.05,0,0,1-1.43-1,1.19,1.19,0,0,1-.24-1.35c.1-.23.16-.4-.2-.44a.37.37,0,0,1-.22-.57c.22-.42.43-.84.63-1.27a1.63,1.63,0,0,1,1.06-.84,8.64,8.64,0,0,1,1-.26,9.81,9.81,0,0,1,1.09-.11s0,.06.08.09l-.15.13h.26l.16-.33.27.16c0-.05.08-.23.14-.24a1.14,1.14,0,0,1,.43.14c.09,0,.17.11.25.11.39,0,.77-.06,1.15-.1.18,0,.43.05.43-.27l.18,0c0,.23.18.2.32.19.68,0,1.36-.09,2-.11s1.33,0,2-.05a2.21,2.21,0,0,0,1.38-.48,23.52,23.52,0,0,0,2.65-2.91c.24-.27.58-.5.6-.93,0-.05.23-.09.24-.15a2.49,2.49,0,0,0,0-.77c-.1-.54-.26-1.07-.41-1.61a3.2,3.2,0,0,0-.31-.72l.17,1.63-.06,0a1.5,1.5,0,0,1-.19-.38c-.11-.44-.21-.89-.28-1.34a3.75,3.75,0,0,1,0-.82A35.27,35.27,0,0,1,33.52,16a3.55,3.55,0,0,1,1-2.27c.17-.14.35-.44.49,0a.36.36,0,0,0,.27,0,2.7,2.7,0,0,1,2.5-1c.26,0,.32.18.18.4.34.06.65.1,1,.18a5.81,5.81,0,0,1,1.53.58c.69.41,1.42.72,2.09,1.2A5,5,0,0,1,44,16.67a7.67,7.67,0,0,1,.91,2.68,10.31,10.31,0,0,1-.07,3,2.56,2.56,0,0,1-.22.64c-.1.23-.11.41.24.52,0-.1.06-.2.08-.3s.09-.48.15-.72c0,0,.12-.06.18-.1s.13.17.11.23c-.16.49-.35,1-.52,1.45a.8.8,0,0,1-.08.16l-.11-.07A1,1,0,0,0,44.7,24a.61.61,0,0,0-.05-.18c-.07,0-.18,0-.2.08s-.12.35-.17.49c.14,0,.3,0,.33,0s.09.27,0,.33a2.3,2.3,0,0,0-.59,1.16c0,.08-.06.2-.11.2-.35.07-.43.39-.61.61-.32.41-.62.83-.94,1.26l.18.24-.34.24-.07-.33c-.37.29-.73.57-1.08.87,0,0,0,.15,0,.22s0,.2-.08.23a.22.22,0,0,1-.23,0,.26.26,0,0,0-.44,0c-.11.14-.41.17-.3.49s-.28.24-.51.09c0,.34.08.69.14,1,.1.62.21,1.24.32,1.86.18,1,.37,2,.55,3.07.09.48.2,1,.28,1.43,0,.21.09.32.34.31a1.14,1.14,0,0,1,.39.14c.05-.05.13-.21.19-.21.34,0,.68-.2,1,0a1.24,1.24,0,0,1,.33-.15c.67-.14,1.34-.24,2-.4q1.38-.32,2.76-.69c.68-.19,1.35-.44,2-.61a7.12,7.12,0,0,1,2.24-.34c.27,0,.45.17.77.63a.18.18,0,0,0,.07-.05c.07-.16.12-.39.33-.3a.8.8,0,0,1,.43.46.32.32,0,0,0,.33.33.72.72,0,0,1,.73.68.27.27,0,0,0,.17.16.81.81,0,0,1,.38,1.1,2.79,2.79,0,0,0-.1.39,5,5,0,0,1-.24.58,1.5,1.5,0,0,1-.23.33,2.11,2.11,0,0,0-.51,1.17c0,.09-.18.21-.29.24-1.06.26-2.12.53-3.19.72a12.45,12.45,0,0,1-1.73.07L46.6,42c-.31,0-.63,0-.94,0s-.65.1-1,.15c-.66.09-1.32.15-2,.26a9.64,9.64,0,0,0-1,.25c0,.5.07,1,.1,1.43,0,.87.14,1.74.13,2.61s-.23,1.44-.25,2.17A3.69,3.69,0,0,1,41,50.44c-.13.26-.34.48-.49.73s-.11.34-.19.49a.73.73,0,0,1-.29.33c-.08,0-.23-.09-.42-.17-.27.11-.63.23-1,.4a3.53,3.53,0,0,1-1.87.43,3.72,3.72,0,0,1-1.29-.36c-.84-.37-1.66-.77-2.48-1.18-1.05-.53-2.1-1.08-3.15-1.63-.66-.36-1.31-.75-2-1.14l-.15.3c-.06-.1-.12-.16-.12-.22,0-.34-.09-.41-.43-.3-.18.05-.34.17-.52.22a.76.76,0,0,1-.33,0l-.16-.05a.8.8,0,0,1,0,.15c0,.11,0,.3-.11.32-.22.07-.4.45-.66.06-.11.48-.3.6-.72.44.13.42-.27.43-.46.58-.41.33-.9.56-1.31.9-.59.5-1.14,1.06-1.7,1.59v.15l1.26.41a8.57,8.57,0,0,0,1,.28c.21,0,.44,0,.66,0s.43.07.31.39h.12c.16-.45.49-.26.8-.22.5.05,1,.06,1.51.1a.86.86,0,0,1,.29.11.94.94,0,0,1-.3.12c-.5,0-1-.05-1.48-.08a.61.61,0,0,0-.18.05v.09c.48,0,1,.07,1.45.12a2.3,2.3,0,0,1,.46.14.78.78,0,0,1,.81,0c.09,0,.22,0,.33,0a6.51,6.51,0,0,0,1.59,0c.14,0,.3.14.44.16a4.87,4.87,0,0,1,.55-.06c.52,0,1,0,1.56,0,.67,0,1.35-.08,2-.06,1,0,2-.06,3-.08.47,0,.94,0,1.41,0s1-.13,1.44-.18c.29,0,.58,0,.88,0l1.37-.14a1.37,1.37,0,0,1,.45,0c.56.12,1.08-.32,1.63-.08.25-.3.59-.09.89-.18a6.69,6.69,0,0,1,1.28-.15,1.34,1.34,0,0,0,.26-.08L47,52.72l.31,0-.08.4,1.16-.16v-.06c-.19,0-.37,0-.56,0a1.57,1.57,0,0,1-.29-.08c.07-.07.13-.2.21-.22a3,3,0,0,1,.67-.06c.05,0,.1.1.15.15a1.48,1.48,0,0,0,.3.23c-.08-.36,0-.44.37-.53s.28.44.59.36l-.13-.3a1.88,1.88,0,0,1,.49-.13c.07,0,.14.16.22.26.08-.11.15-.33.28-.37s.27.15.39.22.16-.24.29-.3a1.19,1.19,0,0,1,.47-.08c.62-.11,1.24-.2,1.85-.35A21,21,0,0,0,56,51a10.79,10.79,0,0,0,1.5-.8c.51-.28,1-.6,1.52-.83a9.67,9.67,0,0,1,1.38-.45A3,3,0,0,1,62,48.86a1,1,0,0,0,1-.36c.17-.2.36-.17.45.06.23.57.75.87,1.13,1.29.42-.36.75-.4,1-.14s.06.44-.29.69c.4,0,.71.15.76.57a1.1,1.1,0,0,1-.09.51.33.33,0,0,0,0,.42c.33.4.32.63,0,1.07a.73.73,0,0,0-.16.3,1.8,1.8,0,0,1-1,1.4.43.43,0,0,0-.11.12,2.29,2.29,0,0,1-1.72,1c-.62.06-1.24.15-1.87.18s-1.21,0-1.82,0c-.82,0-1.63-.11-2.45-.13-.55,0-1.11.06-1.66.07s-1,0-1.44,0c-.28,0-.56.07-.84.09a1.73,1.73,0,0,1-.55,0c-.22.13-.42.36-.7,0a1.39,1.39,0,0,1-.31.16,1.71,1.71,0,0,1-.53.1c-.3,0-.6.23-.93,0-.09-.08-.43.14-.69.23l-.3-.19c-.14.29-.15.29-.78.11-.06.08-.11.18-.19.21s-.16,0-.26,0a1.71,1.71,0,0,1-.39,0s-.28-.19,0-.28l-.49-.06,0,.07.3.23-1,.3-.14-.56-.23.18.23.09-.18.33c-.19-.31-.36-.12-.51,0-.12-.35-.12-.35.19-.39l-.31-.2-.25.59a3.44,3.44,0,0,1-.72,0,3.84,3.84,0,0,1-.69-.33l.19.44H43.1l0-.15.17-.27c-1.07.06-1.07.06-1.09.31l.67-.17Zm-6.25-18h-.85l.21.17.64-.18c.25.26.47,0,.76,0A.55.55,0,0,0,36.69,38.73ZM38,43.8l-1.41.46-.61.23c-.48.16-1,.33-1.46.47a4.65,4.65,0,0,1-.58.1c0,.15,0,.28-.3.12a.54.54,0,0,1-.87.25.65.65,0,0,1-.87.43l.19.14c1.05.51,2.09,1,3.14,1.54a3.78,3.78,0,0,0,2.1.29c.22,0,.44-.08.46-.36.07-.86.15-1.71.2-2.57C38,44.57,38,44.23,38,43.8Zm.73-17.89a3.87,3.87,0,0,0,2.42-3.76,4.8,4.8,0,0,0-1-3.33A2.88,2.88,0,0,1,39.56,20,4.19,4.19,0,0,0,39,21.14c-.18.37-.35.75-.57,1.11a1.41,1.41,0,0,0-.26,1.24c.12.42.15.86.24,1.29S38.61,25.52,38.69,25.91ZM31.26,43.28l0-.14-1.48.39-.52.38,0,.09ZM37.54,19h.06l.59-.78,0-.09c-.12,0-.34,0-.36,0A7.71,7.71,0,0,0,37.54,19Zm-3.73,19.9V39c.17,0,.38.06.48,0,.25-.2.41-.1.6.13l.11-.42Zm-.69.09-.65-.08V39c.38.29.77,0,1.18,0A.35.35,0,0,0,33.12,39Z" transform="translate(-3.09 -1.8)"/><path d="M69.22,61.42a2.46,2.46,0,0,1-.25.44l-2.12,2.19c-.11.12-.17.3-.3.4s-.49.5-.76.72-.48.39-.71.59a.93.93,0,0,0-.14.22l-.28-.21c.19-.19.35-.38.54-.54.39-.33.8-.63,1.17-1,.18-.16.25-.43.41-.61.36-.4.74-.8,1.13-1.18a1,1,0,0,1,.35-.16c.14-.23.23-.57.45-.68s.19-.7.67-.66c.06-.4.29-.68.56-.7,0-.09,0-.21,0-.26a1.19,1.19,0,0,1,.3-.14c0,.11.12.26.08.31q-.45.61-.93,1.2C69.35,61.42,69.23,61.41,69.22,61.42Z" transform="translate(-3.09 -1.8)"/><path d="M9.76,16.7l.15.24c-.09.15-.16.31-.25.45s-.26.34-.39.52L9,17.73c.2.44-.1.63-.28.88s-.34.52-.51.78l-.13-.07.14-.42-.08,0c0-.07-.09-.18-.07-.22.25-.34.52-.66.77-1s.44-.65.66-1c0,0,0-.11,0-.18Z" transform="translate(-3.09 -1.8)"/><path d="M8.85,52.69,9,52.41c.41.6.84,1.19,1.24,1.8.24.37.45.77.67,1.16h0l-.31-.12-.72-.91-.11.09c-.15-.25-.29-.52-.45-.77,0-.07-.15-.1-.19-.16a2.6,2.6,0,0,0-.25-.33A.41.41,0,0,1,8.85,52.69Z" transform="translate(-3.09 -1.8)"/><path d="M78.21,43.57a.9.9,0,0,0,.17-.9s0-.1,0-.16a2.77,2.77,0,0,0,.11-.48c0-.48,0-1,.08-1.43,0-.23-.26-.51.19-.71a4.36,4.36,0,0,1,.06.49,12.81,12.81,0,0,0-.1,1.37c0,.56-.17,1.08-.17,1.62,0,.1-.18.19-.27.28Z" transform="translate(-3.09 -1.8)"/><path d="M15.18,60,15,59.65l.05,0,3.76,2.83,0,.1a3.27,3.27,0,0,1-.44,0s-.05-.12,0-.13a.48.48,0,0,1,.14-.06c-.46-.34-.95-.69-1.43-1.06l-1.52-1.19a2.21,2.21,0,0,0-.27-.12Z" transform="translate(-3.09 -1.8)"/><path d="M31.87,68.41c-.18.12-.36.31-.49,0l-.5.15c-.06-.07-.1-.17-.17-.19-.3-.1-.62-.17-.92-.26a.59.59,0,0,1-.24-.17s0-.2,0-.2a2.09,2.09,0,0,1,.34,0l.39.1,1,.21,0,.1c.21.1.57-.22.64.26Z" transform="translate(-3.09 -1.8)"/><path d="M63.92,66.33c0,.1.08.15.07.17s-.35.29-.33.4c.06.32-.26.21-.28.28-.09.27-.43.22-.52.52s-.39.36-.51.46l-.15-.35Z" transform="translate(-3.09 -1.8)"/><path d="M3.51,34l.07.61c-.33,0-.48-.08-.38-.37s.14-.35.21-.52a.27.27,0,0,0,0-.15.44.44,0,0,1,.13-.66c-.22-.29-.13-.68.1-.72a3.05,3.05,0,0,1,.16.45,1.25,1.25,0,0,1,0,.33c0,.23-.07.47-.12.7A1.27,1.27,0,0,1,3.51,34Z" transform="translate(-3.09 -1.8)"/><path d="M66,11.16c.1,0,.23,0,.3.09.52.48,1,1,1.55,1.47,0,0,.06.15.09.22s-.21,0-.27,0c-.33-.29-.66-.59-1-.9s-.62-.47-.69-.88Z" transform="translate(-3.09 -1.8)"/><path d="M3.45,36.78l-.07-.21-.07.1-.09.08H3.11c0-.17,0-.33,0-.5a3.31,3.31,0,0,1,.34,0L3.17,36V34.71l.36,0,0,.49-.23.07v.07h.25v1.4Z" transform="translate(-3.09 -1.8)"/><path d="M56.19,71.7l2.1-1.23.08,0a.65.65,0,0,1-.12.28c-.17.17-.53.16-.51.53,0,0-.11,0-.19.06l.13-.2c-.54.14-.89.62-1.42.67Z" transform="translate(-3.09 -1.8)"/><path d="M27.64,66.91c.33.12.64.25.95.34a1.3,1.3,0,0,1,.85.59,5.47,5.47,0,0,1-1-.2C28.09,67.51,27.67,67.41,27.64,66.91Z" transform="translate(-3.09 -1.8)"/><path d="M32,57.18h2.43s-.05.14-.08.14a7.14,7.14,0,0,0-.93.09c-.23.05-.49-.16-.54-.1s-.46.07-.67.16c-.06,0-.18-.09-.27-.14Z" transform="translate(-3.09 -1.8)"/><path d="M27.92,57.36c.09-.09.16-.21.23-.21.66,0,1.33,0,2,0,0,0,.05,0,.15.13a1.31,1.31,0,0,1-.4.13Z" transform="translate(-3.09 -1.8)"/><path d="M78,33.36c.22-.13.36-.16.4.15s.13.85.18,1.27c0,.06-.07.12-.11.18s-.15-.13-.17-.2C78.14,34.3,78.05,33.85,78,33.36Z" transform="translate(-3.09 -1.8)"/><path d="M26.92,57.23c-.05,0-.09.12-.14.12-.36,0-.72,0-1.08,0s-.7-.07-1.08-.11c0-.17,0-.32.31-.23a3.13,3.13,0,0,0,.81,0c.05,0,.11,0,.14,0,.23.23.49.06.74.07.1,0,.2.1.31.16Z" transform="translate(-3.09 -1.8)"/><path d="M24.4,6V5.66l.25.18c0-.57.61-.25.8-.56l.11.09c-.06.1-.14.3-.18.3-.43-.07-.62.37-1,.41,0,0-.07.06-.11.07l-.57.14,0-.2A.61.61,0,0,1,24.4,6Z" transform="translate(-3.09 -1.8)"/><path d="M24.51,57.16l-1.59-.09c.08-.2.19-.39.45-.31s.85,0,1.2.25Z" transform="translate(-3.09 -1.8)"/><path d="M78.65,35.73c0,.24,0,.47,0,.7a1.19,1.19,0,0,1-.11.26c-.07-.06-.17-.12-.18-.19,0-.34-.09-.69-.11-1,0-.08.09-.18.13-.27a1.78,1.78,0,0,1,.21.27.8.8,0,0,1,0,.27Z" transform="translate(-3.09 -1.8)"/><path d="M61.94,68v.44l-1.29.74c0-.09,0-.22,0-.25C61.06,68.59,61.48,68.3,61.94,68Z" transform="translate(-3.09 -1.8)"/><path d="M63.25,8.85l.92.63.47.36c-.19.15-.28.19-.44,0a4.48,4.48,0,0,0-.7-.51c-.16-.12-.4-.21-.25-.49Z" transform="translate(-3.09 -1.8)"/><path d="M78.63,38.75c-.2-.21-.08-.46-.11-.69a5.65,5.65,0,0,1,0-.58,2.13,2.13,0,0,1,0-.25c.1,0,.27.07.28.12a6,6,0,0,1,0,.74c0,.24.06.5-.19.66Z" transform="translate(-3.09 -1.8)"/><path d="M19.31,8.61h0l-.94.55h0c-.26,0-.26,0-.46-.46a2,2,0,0,0,1.48-.44l0,.1Z" transform="translate(-3.09 -1.8)"/><path d="M38.05,79l2-.16V79l-2,.22Z" transform="translate(-3.09 -1.8)"/><path d="M4.05,30.54s-.1.08-.1.13c-.07.4-.13.79-.2,1.18,0,0-.06.08-.15.11a6.49,6.49,0,0,1,.23-1.76l.12,0,.09.37Z" transform="translate(-3.09 -1.8)"/><path d="M29.88,4.16c-.26.11-.45.2-.64.26l-.81.19a.29.29,0,0,1-.17-.06s0-.1,0-.11L29.7,4S29.75,4.06,29.88,4.16Z" transform="translate(-3.09 -1.8)"/><path d="M31.86,68.42l.09-.19c.46.28,1.08,0,1.49.42-.24,0-.59.19-.71.08s-.55.16-.66-.21l-.2.1v-.21Z" transform="translate(-3.09 -1.8)"/><path d="M62.52,66.67c0,.08,0,.18-.07.23-.32.3-.65.58-1,.86-.06,0-.17,0-.26,0s0-.17.09-.22l1.13-1Z" transform="translate(-3.09 -1.8)"/><path d="M20.83,63.82l-1.3-.74,0,.16-.4-.24.45-.14,1.36.83Z" transform="translate(-3.09 -1.8)"/><path d="M24,65.44c-.17.07-.3-.21-.42,0a.93.93,0,0,0-.68-.33c-.14,0-.25-.24-.36-.37s0-.1,0-.15a.53.53,0,0,1,.18,0c.1,0,.2.12.3.18l.92.43C24,65.27,24,65.37,24,65.44Z" transform="translate(-3.09 -1.8)"/><path d="M56.67,5.74c-.23.22-.38,0-.57-.11a6.73,6.73,0,0,1-.73-.32l-.24-.13c.33-.18,1.26.22,1.54.57Z" transform="translate(-3.09 -1.8)"/><path d="M35.66,57.21a1,1,0,0,1,.29-.14h1c0,.24,0,.25-.29.27s-.61-.13-.89.07l-.11-.21Z" transform="translate(-3.09 -1.8)"/><path d="M54.89,72.07l-1.4.76a.21.21,0,0,1-.14,0c0-.06,0-.16,0-.18l1.3-.61S54.75,72,54.89,72.07Z" transform="translate(-3.09 -1.8)"/><path d="M26.38,5.05l1.54-.52.16.21a2,2,0,0,0-.26.06c-.37.12-.74.26-1.11.36-.1,0-.22-.08-.34-.12Z" transform="translate(-3.09 -1.8)"/><path d="M62.26,8.33c.08,0,.19-.08.24-.05.26.18.5.38.75.58v0c-.07,0-.17.14-.2.12-.27-.16-.53-.34-.78-.52,0,0,0-.08,0-.12Z" transform="translate(-3.09 -1.8)"/><path d="M42.56,53.14a2.35,2.35,0,0,1,.35-.11c.28,0,.57-.06.87-.07,0,0,.11,0,.16.08s-.07.18-.11.18c-.41,0-.82,0-1.23,0Z" transform="translate(-3.09 -1.8)"/><path d="M51.74,3.61l1.37.44,0,.09c-.09.05-.19.15-.25.13-.35-.13-.69-.28-1-.44a.72.72,0,0,1-.19-.11Z" transform="translate(-3.09 -1.8)"/><path d="M78.45,44.07l-.21,1.29h-.1c0-.08-.09-.16-.08-.23C78.22,44.18,78.22,44.18,78.45,44.07Z" transform="translate(-3.09 -1.8)"/><path d="M75.19,23.56,75,23.13l0-.28.09-.05a1.54,1.54,0,0,1,.23.29,3,3,0,0,1,.16.51.66.66,0,0,1,0,.24l-.19-.17A.41.41,0,0,1,75.19,23.56Z" transform="translate(-3.09 -1.8)"/><path d="M59.64,69.55c.31-.13.52-.46.93-.49l0,.36-.83.29Z" transform="translate(-3.09 -1.8)"/><path d="M59,70.48l-.23-.36.78-.45.09.11Z" transform="translate(-3.09 -1.8)"/><path d="M9.92,54.33l.72.91c0,.16-.06.28-.18.12A1.63,1.63,0,0,1,9.92,54.33Z" transform="translate(-3.09 -1.8)"/><path d="M74.78,22.38c-.09-.15-.17-.28-.24-.41s-.18-.38-.26-.57a.37.37,0,0,1,0-.18s.13,0,.14,0c.16.34.31.69.46,1C74.89,22.28,74.86,22.3,74.78,22.38Z" transform="translate(-3.09 -1.8)"/><path d="M38.8,57.3c-.35-.21-.78.14-1.08-.21,0,0,0-.08,0-.08a2.55,2.55,0,0,0,.73-.07C38.7,56.92,38.84,57,38.8,57.3Z" transform="translate(-3.09 -1.8)"/><path d="M25.15,66l-.39.07a.34.34,0,0,0-.49-.28.21.21,0,0,1-.14,0,1.2,1.2,0,0,1,0-.36C24.41,65.75,25,65.51,25.15,66Z" transform="translate(-3.09 -1.8)"/><path d="M64.86,66l-.65.6a.52.52,0,0,1,.24-.71C64.53,65.83,64.71,65.94,64.86,66Z" transform="translate(-3.09 -1.8)"/><path d="M21.77,7.44l-.1.08-.48-.2v-.1l.67-.34Z" transform="translate(-3.09 -1.8)"/><path d="M41.46,53.19a4.4,4.4,0,0,1,.51,0,.86.86,0,0,1,.21.07.62.62,0,0,1-.19.14,1.81,1.81,0,0,1-.52.06,1.11,1.11,0,0,1-.32-.11l.29-.16Z" transform="translate(-3.09 -1.8)"/><path d="M58.39,69.91l-.86.55-.1-.18.88-.51Z" transform="translate(-3.09 -1.8)"/><path d="M66,11.15c-.53-.06-.71-.23-.67-.62a1,1,0,0,1,.66.63Z" transform="translate(-3.09 -1.8)"/><path d="M40.31,53.27c.2,0,.4-.07.6-.08s.12.06.18.1-.1.11-.15.12c-.26,0-.52.06-.78.07,0,0-.09-.09-.13-.14l.25-.14Z" transform="translate(-3.09 -1.8)"/><path d="M40.64,57.19c0-.38.19-.48.54-.3l0-.17.26.14V57Z" transform="translate(-3.09 -1.8)"/><path d="M26.44,66.63l-.38-.09,0,0,.26,0a1.7,1.7,0,0,1,0-.22l.83.29v.1l-.7,0-.12.14Z" transform="translate(-3.09 -1.8)"/><path d="M26.93,57.24s0-.11,0-.11h1a.8.8,0,0,1-1,.11Z" transform="translate(-3.09 -1.8)"/><path d="M36.67,53.46l.92-.09c-.07.29-.47.36-.9.2Z" transform="translate(-3.09 -1.8)"/><path d="M78.62,38.75s.1,0,.13,0a.63.63,0,0,1,0,.73c-.3-.32-.32-.44-.09-.73Z" transform="translate(-3.09 -1.8)"/><path d="M7.25,21.06a.36.36,0,0,1,.1-.51c.05,0,.05-.15.1-.22a.57.57,0,0,1,.16-.15s.11,0,.11.05a.51.51,0,0,1-.06.21c-.13.21-.28.41-.42.61Z" transform="translate(-3.09 -1.8)"/><path d="M3.24,36.8l.13.3.19-.25,0,.63-.1,0c0-.29-.54-.24-.4-.64Z" transform="translate(-3.09 -1.8)"/><path d="M39.91,53.46a4.11,4.11,0,0,1-.64.06,2,2,0,0,1-.43-.07c.12,0,.24-.08.36-.1S39.65,53.14,39.91,53.46Z" transform="translate(-3.09 -1.8)"/><path d="M46.6,52.75c-.1.11-.15.22-.21.23a4.14,4.14,0,0,1-.61,0s-.05-.11,0-.14a.31.31,0,0,1,.16-.1Z" transform="translate(-3.09 -1.8)"/><path d="M22.88,6.3c.17.16.52-.29.61.21l-.59.23Z" transform="translate(-3.09 -1.8)"/><path d="M73.51,20l-.31-.69.16-.06a4.8,4.8,0,0,1,.32.54S73.61,19.85,73.51,20Z" transform="translate(-3.09 -1.8)"/><path d="M65,64.24v-.12l.37-.21c.07.31,0,.47-.57.71Z" transform="translate(-3.09 -1.8)"/><path d="M35.66,57.2c-.24.27-.63.27-.76,0a.66.66,0,0,1,.76,0Z" transform="translate(-3.09 -1.8)"/><path d="M3.32,37.66c0,.3,0,.6,0,.9,0,0-.06.07-.09.07s-.09,0-.09-.07c0-.3,0-.59,0-.89Z" transform="translate(-3.09 -1.8)"/><path d="M6.28,43.86l.19,1.07-.12,0c-.09-.29-.18-.57-.25-.86C6.09,44.06,6.18,44,6.28,43.86Z" transform="translate(-3.09 -1.8)"/><path d="M51.48,74.64l-.75.37A.46.46,0,0,1,51.48,74.64Z" transform="translate(-3.09 -1.8)"/><path d="M5.92,42,6,43A.85.85,0,0,1,5.92,42Z" transform="translate(-3.09 -1.8)"/><path d="M34.45,53.44a.66.66,0,0,1-.76.26.16.16,0,0,1-.06-.14.15.15,0,0,1,.11-.08h.34Z" transform="translate(-3.09 -1.8)"/><path d="M50.57,74.9c-.11.34-.46.28-.64.48C49.85,75,50,75,50.57,74.9Z" transform="translate(-3.09 -1.8)"/><path d="M31.35,53.55l.75-.07s.08.07.08.1a.21.21,0,0,1-.08.13h-.74Z" transform="translate(-3.09 -1.8)"/><path d="M31.72,57.5c-.3-.08-.61,0-.86-.32C31.19,57.31,31.56,57,31.72,57.5Z" transform="translate(-3.09 -1.8)"/><path d="M65.24,10.48a.64.64,0,0,1-.23-.05,1.24,1.24,0,0,1-.27-.17s-.12-.07-.14-.12a.15.15,0,0,1,.06-.14.19.19,0,0,1,.18,0c.15.12.29.26.43.38Z" transform="translate(-3.09 -1.8)"/><path d="M30,53.78l.1-.31h.42s.14.07.14.11a.16.16,0,0,1-.1.14C30.41,53.75,30.24,53.76,30,53.78Z" transform="translate(-3.09 -1.8)"/><path d="M53.62,4.57c.21-.19.55-.12.82.15C54.11,4.87,53.9,4.63,53.62,4.57Z" transform="translate(-3.09 -1.8)"/><path d="M39.68,57.23c-.16-.26-.65.22-.66-.31h.64Z" transform="translate(-3.09 -1.8)"/><path d="M17,50.67h0c0-.1,0-.21,0-.32l.39,0h0C17.41,50.66,17.35,50.72,17,50.67Z" transform="translate(-3.09 -1.8)"/><path d="M5.46,24.39c.14.2,0,.74-.08.79s-.15-.09-.14-.11C5.3,24.86,5.37,24.66,5.46,24.39Z" transform="translate(-3.09 -1.8)"/><path d="M28.07,53.63l-.61,0s-.06-.1-.05-.14a.16.16,0,0,1,.11-.1l.53,0Z" transform="translate(-3.09 -1.8)"/><path d="M7.24,21.05c-.06.45-.22.63-.57.6.27-.17.14-.63.58-.59Z" transform="translate(-3.09 -1.8)"/><path d="M26.37,5c0,.3-.15.4-.42.36a.6.6,0,0,1-.15-.09c0-.06.07-.16.12-.17a3.73,3.73,0,0,1,.46-.09Z" transform="translate(-3.09 -1.8)"/><path d="M8,19.39c.12.23.12.23-.21.7C7.65,19.86,7.66,19.82,8,19.39Z" transform="translate(-3.09 -1.8)"/><path d="M39.19,52.47l.39-.28.12.21-.42.22Z" transform="translate(-3.09 -1.8)"/><path d="M6.39,22.24c.08-.14.15-.27.24-.4a.16.16,0,0,1,.16-.05.19.19,0,0,1,.06.17A.33.33,0,0,1,6.39,22.24Z" transform="translate(-3.09 -1.8)"/><path d="M35.69,53.44a4.87,4.87,0,0,1,.54,0c.05,0,.09.07.14.1s-.09.1-.14.11C36,53.73,35.73,53.64,35.69,53.44Z" transform="translate(-3.09 -1.8)"/><path d="M28.87,53.46c-.15.21-.56.29-.67.18s-.05-.1,0-.12a.31.31,0,0,1,.15-.11c.08,0,.16,0,.24.05Z" transform="translate(-3.09 -1.8)"/><path d="M29.59,53.71a1.77,1.77,0,0,1-.23,0L29,53.64s0-.12,0-.12a1.9,1.9,0,0,1,.41,0c.07,0,.12.09.18.14Z" transform="translate(-3.09 -1.8)"/><path d="M11.42,56c-.23,0-.53-.42-.47-.61h0l.08-.06.39.67Z" transform="translate(-3.09 -1.8)"/><path d="M53.09,73l-.6.29-.07-.13.58-.34Z" transform="translate(-3.09 -1.8)"/><path d="M6.34,43.77l-.15-1h.07l.22,1Z" transform="translate(-3.09 -1.8)"/><path d="M34.79,53.49l.59,0s.09.08.09.13a.17.17,0,0,1-.1.1c-.19,0-.39,0-.59-.07Z" transform="translate(-3.09 -1.8)"/><path d="M6.24,21.77l.42-.69.13.08-.43.7Z" transform="translate(-3.09 -1.8)"/><path d="M6.88,20.65l.38-.59C7.37,20.34,7.23,20.58,6.88,20.65Z" transform="translate(-3.09 -1.8)"/><path d="M56.67,5.75c.23,0,.37,0,.56.26-.29.09-.47,0-.56-.27Z" transform="translate(-3.09 -1.8)"/><path d="M20,7.59c.17-.18.27-.47.7-.34l-.63.45Z" transform="translate(-3.09 -1.8)"/><path d="M11.41,56a.57.57,0,0,1,.46.68L11.42,56Z" transform="translate(-3.09 -1.8)"/><path d="M62.26,8.33h0c-.07,0-.15,0-.2,0a1.73,1.73,0,0,1-.24-.23A.41.41,0,0,1,62,8c.17,0,.29,0,.26.24Z" transform="translate(-3.09 -1.8)"/><path d="M21.22,64c.38-.08.67.16.59.45Z" transform="translate(-3.09 -1.8)"/><path d="M9.09,51.83l.44.75-.08,0c-.16-.24-.43-.43-.46-.75Z" transform="translate(-3.09 -1.8)"/><path d="M71.08,15.73l.49.67C71.36,16.48,71.07,16.13,71.08,15.73Z" transform="translate(-3.09 -1.8)"/><path d="M30.22,57.21h.63C30.66,57.55,30.56,57.55,30.22,57.21Z" transform="translate(-3.09 -1.8)"/><path d="M5.66,23.27l-.3.66-.13-.06.3-.67Z" transform="translate(-3.09 -1.8)"/><path d="M22.38,7.07l-.07-.58.45.07Z" transform="translate(-3.09 -1.8)"/><path d="M39.54,1.8h.92v.08h-.93Z" transform="translate(-3.09 -1.8)"/><path d="M78.15,45.64c0,.2-.07.41-.12.61,0,0-.07,0-.11.06s-.07-.05-.06-.06c0-.22.1-.43.16-.64Z" transform="translate(-3.09 -1.8)"/><path d="M8.67,51l.28.72-.11,0-.32-.7Z" transform="translate(-3.09 -1.8)"/><path d="M60.78,7.15c-.26.19-.38-.08-.64-.15C60.5,6.68,60.56,7.22,60.78,7.15Z" transform="translate(-3.09 -1.8)"/><path d="M61.37,7.41c-.37.26-.46.22-.52-.18Z" transform="translate(-3.09 -1.8)"/><path d="M73.08,19.08l-.29-.48.14-.09.29.48Z" transform="translate(-3.09 -1.8)"/><path d="M51.82,73.44s0-.07,0-.08l.43-.11s0,.11,0,.12l-.45.19Z" transform="translate(-3.09 -1.8)"/><path d="M51.14,74a1.41,1.41,0,0,1,.18-.29c0-.06.14-.07.22-.1s.06.09.05.11a.59.59,0,0,1-.17.18,1.38,1.38,0,0,1-.29.08Z" transform="translate(-3.09 -1.8)"/><path d="M38.32,53.4l.52-.12c-.09.15-.12.28-.17.29a1.12,1.12,0,0,1-.36,0Z" transform="translate(-3.09 -1.8)"/><path d="M64.42,65.09l-.38.46-.12-.09.35-.47Z" transform="translate(-3.09 -1.8)"/><path d="M14.55,59.36l-.48-.43.08-.08a1.06,1.06,0,0,1,.52.43Z" transform="translate(-3.09 -1.8)"/><path d="M44.73,53.06a.28.28,0,0,1-.47.06l0-.13.46,0Z" transform="translate(-3.09 -1.8)"/><path d="M15.17,60l.07.17-.05,0-.79-.7,0-.05.74.54Z" transform="translate(-3.09 -1.8)"/></svg>