<svg id="Laag_1" data-name="Laag 1" xmlns="http://www.w3.org/2000/svg" viewBox="0 0 316.97 77.41"><defs><style>.cls-1{font-size:48px;fill:#1d1d1b;font-family:HelveticaNeue, Helvetica Neue;}.cls-2{font-family:HelveticaNeue-Bold, Helvetica Neue;font-weight:700;letter-spacing:0em;}</style></defs><title>horizontal</title><path d="M48,72.15,48,72.3l0,.07,5-2.42.07.14a32.45,32.45,0,0,1-3.51,1.83c-1.18.63-2.45,1.08-3.68,1.65.13,0,.25-.08.38-.1a.72.72,0,0,1,.25,0c-.07.07-.11.18-.19.21a7.71,7.71,0,0,1-.8.3l-2.13.66a.84.84,0,0,1-.16,0l-.05-.25c0,.41-.29.42-.53.49-.89.25-1.76.53-2.66.72s-2,.38-3,.5a24.15,24.15,0,0,1-2.69.19c-.68,0-1.37-.13-2.06-.15s-1.57,0-2.39,0c.09.18.19.28.37.14s.28,0,.45,0a4.34,4.34,0,0,0,1.12.46c.72.14,1.45.21,2.17.3.21,0,.43,0,.64,0s.12.09.18.14a1,1,0,0,1-.21.1,16.32,16.32,0,0,1-3.76-.22c-1.22-.18-2.43-.43-3.63-.7-1.48-.32-2.95-.66-4.4-1-1-.28-2-.64-3-1a7.71,7.71,0,0,1-1-.45.52.52,0,0,1-.25-.31.7.7,0,0,0-.53-.47c-1.1-.37-2.19-.74-3.28-1.13-.41-.15-.8-.37-1.2-.53-.72-.29-1.44-.56-2.16-.84-.07,0-.16,0-.19-.08-.33-.64-1-.56-1.56-.86-.31-.18-.65-.33-1-.49a1.73,1.73,0,0,0-.32-.11c.18-.35.49-.1.72-.12.44,0,.88.06,1.32.08a1.6,1.6,0,0,0,.32,0l-.77-.33,0-.09.2,0a4,4,0,0,1,.58-.11c.5,0,1,0,1.5,0s.9-.09,1.35-.12c.6,0,1.2,0,1.8,0h.2a1.82,1.82,0,0,1-.37-.18A.49.49,0,0,1,15,67.9c0-.06.14-.17.23-.19.29,0,.59,0,.88-.06.11,0,.27.09.26-.19,0-.07.34-.24.53-.25.68,0,1.35,0,2,.08a12.54,12.54,0,0,1,1.37.19c1.17.22,2.35.44,3.51.7s2.14.58,3.22.85c.65.16,1.32.28,2,.43.43.1.85.23,1.28.32s.86.16,1.3.23c.9.15,1.81.33,2.72.43a18.23,18.23,0,0,0,6.33-.34c.95-.23,1.89-.48,2.82-.73a3.62,3.62,0,0,0,.71-.28c.39-.17.76-.38,1.16-.52a15.36,15.36,0,0,1,1.76-.77,3.72,3.72,0,0,0,.92-.49c.54-.28,1.09-.53,1.62-.82s1.07-.67,1.61-1l1.42-.79a8.87,8.87,0,0,0,.74-.51c.48-.35.94-.71,1.43-1.05a1.74,1.74,0,0,1,.5-.19c0-.3.31-.4.53-.58.46-.38.91-.77,1.39-1.12a7.13,7.13,0,0,0,.87-.78c.39-.38.82-.74,1.24-1.1.06-.05.15,0,.24-.07-.05-.22,0-.35.24-.48a2.73,2.73,0,0,0,.6-.62c.43-.49.85-1,1.3-1.46.1-.11.3-.12.46-.18a1.17,1.17,0,0,1,.35-.91c.27-.24.6-.44.68-.84,0,0,0,0,0,0,.49-.27.63-.81.92-1.23s.58-.92.87-1.39l.47-.75c.3-.49.62-1,.89-1.47.38-.75.72-1.51,1.07-2.27s.57-1.22.79-1.85c.32-.91.61-1.84.86-2.77a11.56,11.56,0,0,0,.18-1.44s0-.08,0-.11c.38-.61.16-1.32.32-2a9,9,0,0,0,.08-1.81c0-.71.06-1.43.07-2.15a5.56,5.56,0,0,0-.08-.7c-.07-.58-.18-1.16-.2-1.75s-.32-1.2-.27-1.8-.3-.84-.2-1.31c0-.23-.15-.5-.22-.75s-.08-.42-.14-.62l-.36-1.1c-.17-.51-.36-1-.52-1.52,0-.1,0-.22,0-.31-.15-.31-.31-.63-.44-.95A7.6,7.6,0,0,0,66.46,23c-.14-.17-.15-.43-.25-.63s-.2-.18-.26-.29c-.33-.59-.64-1.19-1-1.78-.19-.32-.43-.61-.65-.91-.52-.72-1-1.44-1.58-2.15-.27-.36-.58-.69-.88-1a9.51,9.51,0,0,1-.88-.92,11.33,11.33,0,0,0-1.88-1.91c-.44-.38-.9-.73-1.34-1.12-.27-.24-.5-.52-.76-.76s-.3-.17-.42-.28-.5-.46-.76-.68a2.43,2.43,0,0,0-.4-.18l-.94-.57L53,8.87l-.56-.35c-.33-.22-.64-.46-1-.66a7.56,7.56,0,0,0-.91-.43L47.23,5.94a17.18,17.18,0,0,0-3.71-1.16l-2.24-.44A19.58,19.58,0,0,0,37.46,4c-.86,0-1.72,0-2.58.08s-1.85.12-2.77.22-1.6.2-2.39.35c-.58.11-1.16.29-1.74.42-.34.08-.7.11-1,.19a6.13,6.13,0,0,0-.6.22c-.71.24-1.42.48-2.12.74-.34.13-.65.31-1,.47a.59.59,0,0,1-.29.07c-.37,0-.56.33-.94.38-.13-.11-.25-.12-.39.14s-.37.22-.56.33-.45.27-.69.38a1.8,1.8,0,0,1-.47.07,1.72,1.72,0,0,1-1.1.66c-.17.43-.57.53-.95.68a.62.62,0,0,0-.19.14s0,.11-.06.11c-.44,0-.53.58-1,.54,0,0-.09.08-.13.13s-.1.17-.15.17c-.37,0-.45.37-.74.49a3.27,3.27,0,0,0-.82.59c-.26.22-.49.46-.74.68-.53.46-1.09.89-1.59,1.38s-.94,1-1.4,1.56S10.34,16,10,16.36s-.47.58-.69.87a6.58,6.58,0,0,0-.53.77c-.3.53-.72,1-1.06,1.48-.43.66-.81,1.36-1.2,2.05a10.15,10.15,0,0,1-.45.94A22.66,22.66,0,0,0,5,24.7c-.13.25-.2.53-.34.78s0,.62-.34.78c.12.56-.33,1-.37,1.51a6.76,6.76,0,0,1-.4,1.2,5.14,5.14,0,0,0-.16.76c-.12.73-.26,1.46-.35,2.2-.07.51-.06,1-.11,1.55a7.19,7.19,0,0,1-.14.76s.14,0,.14.09a1.25,1.25,0,0,1,0,.51,4.69,4.69,0,0,0,0,1.79,2.32,2.32,0,0,1,0,.59c0,.06-.15.11-.24.14a1.69,1.69,0,0,1-.25,0l.07.1c.16,0,.42,0,.46.13a3.61,3.61,0,0,1,.15.82s0,.07-.05.11l0,.28c-.14.5.17,1,0,1.53l-.22-1.23h0l0,1H2.63l-.16-.95-.14,0c.18,1,.34,2,.55,3,.15.74.33,1.47.54,2.2.15.57.36,1.12.55,1.68,0,.09.12.16.16.24s.27.41-.14.63l.51-.09v.8l.36.06.14.45a.26.26,0,0,1,0,.12l-.16.23c.09,0,.2,0,.26,0s.34.27.16.55l-.07-.17L5.09,49l.85,1.64-.18.27-.47-.27.24-.09c-.46-.18-.47-.46-.18-.84l-.12,0a.43.43,0,0,0,0,.07V50l-.57-.63L5,49.16A.84.84,0,0,0,4.85,49c-.24.27-.31,0-.41-.14l-.06,0c.23-.36-.32-.57-.15-.91H4v-.33l-.35-.14c0-.14.38-.29,0-.44a1.22,1.22,0,0,1,.06-.29l-.52,0,0-.09.31-.27s-.1-.14-.13-.13c-.37.14-.3-.14-.36-.34a4.08,4.08,0,0,0-.29-.6L3,45.32,2.56,45l.08-.1.27.18L3,44.64l-.54.06a2.9,2.9,0,0,1-.12-.58.87.87,0,0,1,.16-.42c.12-.24,0-.39-.21-.52l.14.56c-.25.07-.4-.1-.36-.4s.05-.57-.31-.7l-.13.3-.18-.83.12,0a1.19,1.19,0,0,0,.07.27.85.85,0,0,0,.14.19L2,42.33c-.05,0-.11,0-.15-.09s-.13-.14-.12-.2c.11-.48.11-.48-.42-.55-.05-.37-.09-.77-.15-1.16s-.17-.65-.22-1-.07-.8-.11-1.2a1,1,0,0,0-.1-.24.06.06,0,0,0,.06,0A2.18,2.18,0,0,0,1,37.67c0,.13.05.26.08.39a.89.89,0,0,0,.08.17l.08,0L1,33.69H1v3.86c-.14.07-.23,0-.23-.22,0-1.07-.07-2.13-.08-3.2,0-.67,0-1.34,0-2a1.78,1.78,0,0,1,.13-.44.38.38,0,0,1,0-.55c.09-.12,0-.34.05-.52s0-.38,0-.58,0-.32,0-.53c.29-.17.18-.47.07-.78v0a2.61,2.61,0,0,0,.33-1.45c-.07.27-.13.55-.21.82,0,.09-.12.15-.19.22,0-.09-.1-.19-.09-.28a4.72,4.72,0,0,1,.15-.82c.08-.28.23-.54.32-.81a1.28,1.28,0,0,0,0-.39c0-.32.3-.53.26-.87,0-.06.25-.15.38-.23l.16.29.1,0,.09-.68L2,24.46l-.23.34-.09,0a.67.67,0,0,1,0-.24c.09-.28.2-.56.3-.84a.4.4,0,0,1,.13-.15c.29.12.33-.28.58-.27.09,0,.18-.12.3-.2L2.63,23c.08-.18.14-.34.22-.5.23-.46.46-.93.7-1.39s.4-.75.61-1.12.44-.69.64-1,.5-.91.76-1.35.43-.67.63-1c.1-.18.1-.43.4-.43,0,0,.07-.11.1-.17a4.47,4.47,0,0,1,.25-.6s.19,0,.35,0l-.12-.46-.35.23-.15-.25c0-.07,0-.16,0-.21A6.54,6.54,0,0,1,7,14.09l.22.67.26-.13a.69.69,0,0,1-.2-.93l.18.21c.06-.07.13-.13.19-.21a2.31,2.31,0,0,1,.25-.36L9.13,12.1c.18-.18.31-.4.5-.58.35-.33.73-.64,1.1-1l.44-.37c.4-.32.81-.62,1.19-.95.21-.18.35-.43.55-.62.44-.38.88-.76,1.35-1.1a1.9,1.9,0,0,1,.61-.19l.07.14-.38.33c.27.13.4-.49.68-.11l.07-.33h0a.94.94,0,0,0,.28-.1c.19-.16.35-.36.55-.16l.1-.29h0c.24-.13.48-.26.71-.41.07,0,.25-.09.07-.23,0,0,.05-.09.08-.14s.08.09.09.14a2.84,2.84,0,0,1,.06.31l.11,0-.06-.22.3,0-.3-.3c.15-.18.41-.15.67.11l.63-.36.1-.08a2.15,2.15,0,0,1,.47-.25,2.16,2.16,0,0,1,.57,0c.09-.62.78-.46,1.17-.74a2.28,2.28,0,0,1,.69-.32c.39-.1.71-.47,1.18-.35.11-.3.42-.25.68-.31,0,0,.11,0,.12,0,.16-.27.38-.32.57-.21,1.19-.53,2.4-.77,3.56-1.21l-.79.11,0-.14c.23-.07.45-.15.68-.21l1-.2a3,3,0,0,1,.52-.1c.06,0,.13.09.2.13l.09.08c.07-.12.11-.26.17-.27l1.63-.22c.4,0,.81-.13,1.22-.19a4.48,4.48,0,0,1,.52,0s0,0,0-.05L33.5,1a.81.81,0,0,1,.22,0,2.88,2.88,0,0,0,.63.11c.19,0,.36-.14.55-.17a.75.75,0,0,1,.41.06c.28-.06.55-.21.85,0a.17.17,0,0,0,.18,0c.41-.3.86,0,1.28-.07,0,0,.09.16.19.24l0-.26c.38.06.74.14,1.11.17s.71,0,1.05,0c.74.07,1.48.15,2.22.26,1,.15,2,.32,3,.5.62.12,1.24.24,1.86.4.29.07.55.26.84.34a3.49,3.49,0,0,0,.75,0l.05.16.3-.08.2.23c.08,0,.16-.1.21-.09l2.18.8c.07,0,.13.12.2.16a1.51,1.51,0,0,0,.35.14,2.58,2.58,0,0,1,.76.22c.13.09.2.18.38.16a.54.54,0,0,1,.37.15c.12,0,.3,0,.38.4l.4-.27-.17-.38a1,1,0,0,1,.36,0c.44.21.86.46,1.29.69a2,2,0,0,1,.41.22c.08,0,.11.17.16.26l-.34.12,0,.18.37-.06.33-.23L57,5.9c.16-.13.32-.06.54.12.38.28.82.49,1.23.74.2.14.38.32.59.5a4.08,4.08,0,0,1,.87.55c.23.22.51.34.74.55.51.48,1,.94,1.58,1.39.13.12.3.18.43.29.64.57,1.28,1.13,1.9,1.72.37.35.69.76,1,1.14l.08-.06-.38-.49c-.23-.27-.45-.54-.66-.82-.05-.06,0-.16,0-.25s.21,0,.26.05c.39.43.77.86,1.13,1.31.6.75,1.2,1.51,1.78,2.29.39.53.74,1.08,1.1,1.63s.5.81.74,1.22c.36.63.73,1.25,1.08,1.88.22.4.42.8.64,1.2a3.63,3.63,0,0,0,.34.46l.16.44c0,.35.18.57.49.61l-.07.21.08,0a2.51,2.51,0,0,1,.3.75,1.55,1.55,0,0,0,.18.6,8.36,8.36,0,0,1,.27.89c.27.85.55,1.69.82,2.54.16.52.32,1.05.45,1.58.18.7.33,1.4.49,2.11a1.13,1.13,0,0,1,0,.31l-.32-.09a.32.32,0,0,0-.06.18c.09.69.22,1.37.27,2.06s0,1.3,0,2S75,36.5,75,37c0,.31,0,.62-.05.93,0,.13.05.26,0,.39A8.41,8.41,0,0,0,74.85,40a8.73,8.73,0,0,1-.11,1.46c0,.22-.15.42-.17.64s0,.64-.07.95c-.13.71-.27,1.4-.43,2.1a10.1,10.1,0,0,1-.32,1.07,2.73,2.73,0,0,1-.28.4A2.11,2.11,0,0,1,73,48.3c-.1.37-.15.63-.24.88-.22.55-.45,1.1-.71,1.64-.37.76-.77,1.5-1.18,2.25-.26.48-.54,1-.82,1.42s-.68,1.11-1,1.64-.83,1-1.23,1.53a2.41,2.41,0,0,0-.22.42c-.48-.17-.23-.46-.1-.57.36-.31.49-.75.79-1.09a1.18,1.18,0,0,1,.22-.17,1.15,1.15,0,0,1,.09-.33c.17-.29.36-.56.55-.83s.13-.35.39-.31c0,0,.13-.15.11-.21-.1-.32.09-.49.29-.69a5.16,5.16,0,0,0,.37-.66A10.68,10.68,0,0,0,71,51.64a1.92,1.92,0,0,1,.26-.32c0-.13.07-.28.12-.41.17-.42.35-.84.52-1.25.11-.24.23-.47.33-.72s.08-.35.14-.52l.51-1.5-.09,0a8.06,8.06,0,0,0-.39.71c-.3.67-.56,1.36-.89,2s-.72,1.37-1.11,2c-.23.39-.49.76-.73,1.13-.56.84-1.11,1.68-1.67,2.51-.29.43-.61.82-.9,1.24s-.56.84-.86,1.24c-.68.88-1.38,1.74-2.07,2.6-.13.17-.26.36-.5.18,0,.11.09.27.07.29a1.7,1.7,0,0,1-.36.11c.09.35-.15.62-.6.58a.43.43,0,0,0-.47.28,3.08,3.08,0,0,1-.37.5l0,.11-.25.11c-.14.08-.26.18-.43.29s-.27.32-.44.48a5.44,5.44,0,0,1-.86.74,8.57,8.57,0,0,0-.77.69c-.32.25-.69.46-1,.7-.11.08-.19.2-.3.29-.33.25-.66.5-1,.74a1.17,1.17,0,0,1-.32.09,1.78,1.78,0,0,1-.21.27c-.29.2-.6.37-.9.57s-.62.45-1,.67-.88.59-1.34.84c-.83.46-1.68.9-2.53,1.33s-1.49.76-2.24,1.11c-.29.14-.6.2-.89.32-.14,0-.24.2-.38.26l-1.44.59c-.44.17-.87.37-1.31.54s-.8.27-1.21.38l-1.41.36c-.62.15-1.25.28-1.88.44s-1,.28-1.49.42l0,.09a9,9,0,0,1,1.26-.16,3.62,3.62,0,0,0,.8-.08c.44-.1.89-.12,1.33-.22a9.55,9.55,0,0,0,1-.34l2-.64a1.61,1.61,0,0,1,.39,0s0,0,0,0c0-.37.39-.14.55-.33s.36-.37.6-.06c0,0,.15,0,.23,0l-.06-.1a.85.85,0,0,1,.24-.29,6.13,6.13,0,0,1,.91-.4,1.34,1.34,0,0,1,.44,0ZM2.35,33.86c0,.06-.11.11-.12.17,0,.39,0,.78,0,1.16h.08c0-.45,0-.9,0-1.35l.13-1.29H2.35ZM38.54,1.68l-.82-.18.07.43L38,1.64l.15.2.38-.16c0,.2.14.27.33.15a.33.33,0,0,1,.21-.05L40.7,2a11.85,11.85,0,0,0,1.43.24c.28,0,.53,0,.73.18a2.08,2.08,0,0,1,.5.07c.14,0,.28,0,.42,0V2.4a1.22,1.22,0,0,0-.24-.1C43,2.25,42.55,2,42,2c-.16,0-.32-.07-.48-.09-.66-.08-1.33-.17-2-.23C39.22,1.65,38.88,1.68,38.54,1.68ZM64.06,59,58.8,64A24.84,24.84,0,0,0,64.06,59ZM22.26,4.63l0,0-.74.35c-.56.26-1.13.5-1.68.78s-1.08.57-1.59.9-1,.57-1.46.84-.57.56-.94.73ZM6.05,18l-.74,1.2c-.25.4-.5.79-.73,1.2s-.45.88-.66,1.32L3.33,23l3.52-6L6.57,17c0,.06-.11.16-.09.25A.79.79,0,0,1,6.05,18ZM37.19,1.83c-.09-.34-.22-.35-.65-.13a1.41,1.41,0,0,0-.44-.08c-.13,0-.26,0-.39,0-.3,0-.6,0-.89,0s-.46.05-.68.07v.09ZM73.81,28.76l.12,0-.83-3.25-.13,0a1.9,1.9,0,0,0,0,.41,10.7,10.7,0,0,1,.43,1.54C73.48,27.94,73.81,28.29,73.81,28.76Zm-46.6-26,0,.12,2.31-.66,0-.12ZM1.33,38.84H1.26l0,.73c.27.19.27.24,0,.39l.29.5-.28.12,0,.08.34,0ZM45.13,2.23l0,.5c.1-.08.23-.24.33-.22.3,0,.58.16.88.23a1.17,1.17,0,0,0,.27,0V2.69ZM7.32,16l.07.07,1-1.2-.11-.1Zm42-12.4,0,.05.67.46.34-.1Zm-36,5.73.28-.45-.54.08Zm-1.19,1.31.07.07L13,10l-.07-.09Zm32,63.51,0,.06,1-.27,0-.12ZM40.13,3h-.75v.1C39.62,3,39.89,3.41,40.13,3ZM54.89,5,54.64,5a.84.84,0,0,0,.2.08A.64.64,0,0,0,55,5.06c0-.07,0-.17-.07-.21a2.17,2.17,0,0,0-.33-.19l0,0ZM2.43,32.29l.12,0,.1-1.08H2.59ZM44.67,2.73v0l-.81-.34c.06.12.09.25.15.27S44.46,2.7,44.67,2.73Z"/><path d="M39.85,55l0,.22a7.42,7.42,0,0,1-.94.06.34.34,0,0,1-.35-.41c-.6,0-1.2.07-1.8.07s-1.12.12-1.71.08l.11-.29c-.27.21-.47.62-.82.28L33.6,55a4,4,0,0,0-.76,0,3.75,3.75,0,0,1-1,0l-1.41,0h-1c-.13,0-.29.09-.37,0-.31-.19-.6,0-.91,0a4,4,0,0,1-.69,0,1.47,1.47,0,0,1-.33-.07,7.38,7.38,0,0,1-.9.07,7.56,7.56,0,0,1-.83-.14c-.07,0-.16.06-.26.11a.41.41,0,0,0-.18-.06c-.11,0-.23,0-.34,0S24.1,54.9,24,55c-.34.23-.6-.14-.79-.07-.57.2-1.09-.06-1.63-.05a18.29,18.29,0,0,1-2.08-.2s0,0-.09.07a1.05,1.05,0,0,1,.26.07c.07.06.17.15.16.22a.25.25,0,0,1-.18.19,1.46,1.46,0,0,1-.4-.07,1,1,0,0,0-.24,0c-.2,0-.41,0-.61,0A1.86,1.86,0,0,0,18,55c-.14-.17-.21-.27-.52-.1s-.71,0-1.05-.16a11.1,11.1,0,0,1-1.68-.67,5.48,5.48,0,0,1-.89-.79c-.05,0-.13-.07-.19-.12s-.19-.12-.23-.21.1-.13.13-.21,0-.21.07-.3a1.88,1.88,0,0,0-.23-1.43,1.78,1.78,0,0,1-.09-1.59c.06-.1,0-.28,0-.46l.58-.13h0l-.17,1,1.13-1.75-.05,0-.57.41v0c0-.15,0-.34.06-.42a10.37,10.37,0,0,1,1.05-.94,1.3,1.3,0,0,1,.47-.13c-.18-.32.27-.37.42-.53a1.94,1.94,0,0,1,1-.68c.34-.05.4-.27.6-.41a14,14,0,0,1,1.31-.76s.13,0,.2,0l.23,0-.07-.27.9-.46c-.07-.09-.11-.19-.17-.22-.34-.16-.42-.49-.6-.76a2.26,2.26,0,0,0-.51-.46,1.09,1.09,0,0,1-.3-1.08c0-.18,0-.36,0-.54s0-.37.09-.46.15-.34.17-.55a2.76,2.76,0,0,1,.26-.92,2.84,2.84,0,0,1,.39-.54l-.09-.08c-.12.11-.23.24-.36.34a1.09,1.09,0,0,1-.34.17s-.11-.08-.1-.1a.75.75,0,0,1,.19-.34,4.59,4.59,0,0,1,1.67-.9c.83-.2,1.66-.41,2.5-.57.59-.12,1.19-.16,1.79-.24v.1l-.24.13,0,.07.78,0-.33-.26c.14,0,.22,0,.24,0,.22.31.51.16.79.14L28,36.82c.28,0,.56-.07.83-.1l1.43-.11a.4.4,0,0,0,.16-.07c.41,0,.75.07,1.1.06.56,0,1.13-.1,1.69-.14.32,0,.64,0,1-.06L34,36.17l.4-.13-.21-.12a2.88,2.88,0,0,0,0-.57c-.07-.61-.14-1.21-.24-1.82s-.21-.92-.3-1.38-.19-1-.27-1.57a1.54,1.54,0,0,1,0-.33l-.17-.59c0-.13,0-.26-.08-.38a1.31,1.31,0,0,1-.27.06c-.37,0-.75.06-1.13.09-1.05.07-2.1.13-3.15.21a1,1,0,0,0-.47.18c-.48.35-.93.75-1.42,1.08a10.21,10.21,0,0,1-1.54.88c-1,.44-2.05.85-3.1,1.21a1.66,1.66,0,0,1-1.22.11.57.57,0,0,1-.23-.15.47.47,0,0,0-.71.1.48.48,0,0,1-.38.17,11,11,0,0,1-2.41-.92,6.59,6.59,0,0,1-1.43-1,1.19,1.19,0,0,1-.24-1.35c.1-.24.16-.4-.2-.45s-.34-.32-.21-.56c.21-.42.42-.85.62-1.28a1.61,1.61,0,0,1,1.06-.83,8.68,8.68,0,0,1,1-.27c.36-.06.73-.08,1.09-.11,0,0,.05.06.08.09l-.15.13H19l.16-.32.27.15s.08-.23.15-.23a1.36,1.36,0,0,1,.42.13c.09,0,.17.12.25.11.39,0,.77-.05,1.16-.1.18,0,.42.06.42-.26a1.55,1.55,0,0,1,.18,0c0,.24.18.2.32.2l2-.12c.66,0,1.33,0,2,0a2.27,2.27,0,0,0,1.38-.48,23.6,23.6,0,0,0,2.65-2.92c.24-.27.58-.49.6-.93,0-.05.23-.08.24-.14a2.24,2.24,0,0,0,0-.77c-.1-.55-.26-1.08-.41-1.61a3.47,3.47,0,0,0-.31-.73l.17,1.64-.06,0a1.44,1.44,0,0,1-.19-.37,12.22,12.22,0,0,1-.27-1.34,3.82,3.82,0,0,1,0-.83,35.68,35.68,0,0,1,.25-3.58,3.55,3.55,0,0,1,1-2.26c.17-.15.35-.45.49,0,0,0,.24,0,.27,0a2.73,2.73,0,0,1,2.51-1c.25,0,.31.19.17.41.34.06.65.1,1,.18a5.81,5.81,0,0,1,1.53.58c.69.4,1.43.72,2.09,1.19a5.11,5.11,0,0,1,1.42,1.59,7.81,7.81,0,0,1,.91,2.68,10.3,10.3,0,0,1-.07,3,2.63,2.63,0,0,1-.22.65c-.1.23-.11.41.24.51a2.45,2.45,0,0,0,.08-.29c.05-.24.09-.49.15-.72,0-.05.12-.07.19-.1s.12.17.1.23c-.16.48-.34,1-.52,1.45l-.07.15-.12-.06a1.11,1.11,0,0,0,0-.25.61.61,0,0,0,0-.18c-.07,0-.18,0-.2.08s-.12.36-.17.5c.14,0,.3,0,.33,0s.09.28,0,.34A2.22,2.22,0,0,0,41,24.05c0,.07-.06.19-.11.2-.35.06-.43.38-.6.6-.33.41-.63.84-.95,1.26l.18.24-.34.24-.07-.32c-.37.29-.73.57-1.08.86,0,0,0,.15,0,.23s0,.19-.08.23a.27.27,0,0,1-.23,0,.26.26,0,0,0-.44,0c-.11.14-.41.17-.3.49.06.16-.28.23-.51.08,0,.34.08.69.14,1,.1.62.21,1.24.32,1.86.18,1,.37,2,.55,3.06.09.48.2,1,.28,1.43,0,.22.09.33.34.32a1,1,0,0,1,.39.14c0-.06.13-.22.19-.21.34,0,.69-.2,1,0a1.68,1.68,0,0,1,.33-.16c.67-.14,1.35-.24,2-.39.92-.21,1.84-.45,2.76-.69.68-.19,1.35-.44,2-.62A7.11,7.11,0,0,1,49,33.6c.27,0,.45.17.77.63,0,0,.06,0,.07-.06s.13-.39.33-.29a.79.79,0,0,1,.43.45.33.33,0,0,0,.33.34.71.71,0,0,1,.73.67c0,.07.1.14.17.17a.8.8,0,0,1,.38,1.09,2.6,2.6,0,0,0-.1.4,5.89,5.89,0,0,1-.24.58,1.78,1.78,0,0,1-.23.33,2.08,2.08,0,0,0-.51,1.17c0,.09-.18.21-.29.24-1.06.25-2.12.52-3.19.72a12.39,12.39,0,0,1-1.73.07l-2.38.09c-.32,0-.64,0-1,0s-.65.1-1,.14c-.66.09-1.32.16-2,.26-.34.06-.68.17-1,.26,0,.5.07,1,.1,1.43,0,.87.15,1.74.13,2.61,0,.72-.22,1.44-.25,2.16A3.68,3.68,0,0,1,38,48.64c-.13.26-.34.47-.49.72s-.11.34-.19.49a.81.81,0,0,1-.29.34c-.08,0-.23-.09-.42-.18-.26.11-.63.23-1,.41a3.62,3.62,0,0,1-1.87.43,4.21,4.21,0,0,1-1.29-.36c-.84-.37-1.66-.78-2.48-1.19-1.05-.53-2.1-1.07-3.14-1.63-.67-.35-1.32-.75-2-1.13l-.15.29c-.06-.1-.12-.15-.12-.21,0-.34-.09-.41-.43-.31-.18,0-.34.17-.52.23a1,1,0,0,1-.33,0l-.16,0a.58.58,0,0,1,0,.14c0,.12,0,.3-.11.32s-.4.46-.66.06c-.11.49-.3.6-.72.44.13.42-.27.44-.46.58-.41.33-.9.57-1.3.91-.6.5-1.15,1.05-1.71,1.58v.15l1.26.41a7,7,0,0,0,1,.28,3.67,3.67,0,0,0,.66,0c.25,0,.43.08.32.39l.11,0c.16-.46.49-.26.8-.23.5.06,1,.06,1.51.1a1.19,1.19,0,0,1,.29.12.94.94,0,0,1-.3.12l-1.48-.08a1.16,1.16,0,0,0-.18,0v.1c.48,0,1,.06,1.46.11a3.59,3.59,0,0,1,.45.14.8.8,0,0,1,.81,0c.09,0,.22,0,.33,0a7.77,7.77,0,0,0,1.6,0c.13,0,.29.14.43.15s.37,0,.55,0c.52,0,1,0,1.56,0s1.35-.09,2-.06c1,0,2-.06,3-.09.47,0,.94,0,1.41,0s1-.12,1.44-.17c.29,0,.59,0,.88,0,.46,0,.91-.1,1.37-.15a1.72,1.72,0,0,1,.45,0c.56.12,1.08-.31,1.63-.08.25-.29.6-.08.89-.18a6,6,0,0,1,1.28-.14,1.34,1.34,0,0,0,.26-.08l-.06-.34.31,0-.07.41,1.15-.16V51a5.12,5.12,0,0,1-.56,0,1.53,1.53,0,0,1-.29-.07c.07-.08.13-.21.21-.23a3.78,3.78,0,0,1,.67-.05s.1.1.15.15a1.46,1.46,0,0,0,.3.22c-.08-.36,0-.44.37-.52s.28.43.59.35l-.12-.29a2.18,2.18,0,0,1,.48-.14c.07,0,.14.16.22.26.08-.11.15-.32.28-.36s.27.15.39.22.16-.24.29-.31a1.71,1.71,0,0,1,.47-.08c.62-.11,1.24-.2,1.85-.34a21,21,0,0,0,2.35-.67,10.73,10.73,0,0,0,1.5-.79c.51-.28,1-.6,1.52-.84a9.67,9.67,0,0,1,1.38-.45,3.09,3.09,0,0,1,1.54-.08.93.93,0,0,0,1-.36c.17-.19.36-.16.45.07.23.57.75.86,1.13,1.28.42-.36.75-.4,1-.14s.06.44-.29.69c.4,0,.71.16.76.58a1,1,0,0,1-.09.51.33.33,0,0,0,0,.42c.33.4.32.63,0,1.07a.76.76,0,0,0-.16.29,1.83,1.83,0,0,1-.94,1.41c-.05,0-.08.07-.12.12a2.29,2.29,0,0,1-1.72,1c-.62.06-1.24.14-1.86.18s-1.22,0-1.83,0c-.81,0-1.63-.11-2.44-.13-.56,0-1.12,0-1.67.07s-1,0-1.44,0c-.28,0-.56.07-.84.1a1.74,1.74,0,0,1-.55-.05c-.21.14-.42.37-.7,0,0,0-.2.13-.3.16a2.1,2.1,0,0,1-.54.09c-.3,0-.6.23-.93,0-.09-.08-.43.15-.69.24l-.3-.2c-.14.29-.15.3-.78.11-.06.09-.11.19-.19.22s-.16,0-.26,0a1.71,1.71,0,0,1-.39,0s-.28-.19,0-.29l-.49-.06,0,.07.29.24-1,.29-.14-.55-.22.18.22.08-.18.33c-.19-.31-.36-.11-.51.06-.12-.35-.12-.35.19-.4l-.31-.2-.24.6A4.33,4.33,0,0,1,41,55a4.67,4.67,0,0,1-.69-.33l.19.44H40L40,55l.17-.26c-1.07,0-1.07,0-1.09.31l.67-.17Zm-6.25-18h-.85l.21.17.64-.17c.25.26.47,0,.76,0A.57.57,0,0,0,33.6,36.92ZM34.87,42l-1.41.45c-.2.07-.4.17-.61.24l-1.46.47a4.71,4.71,0,0,1-.58.09c0,.16,0,.29-.3.13a.54.54,0,0,1-.87.25.65.65,0,0,1-.87.43l.2.13c1,.52,2.08,1.05,3.13,1.55a3.87,3.87,0,0,0,2.1.29c.22,0,.44-.09.46-.37.07-.85.15-1.71.2-2.56C34.89,42.76,34.87,42.43,34.87,42Zm.73-17.89A3.87,3.87,0,0,0,38,20.35,4.78,4.78,0,0,0,37,17a2.86,2.86,0,0,1-.52,1.19A3.86,3.86,0,0,0,36,19.33a11.78,11.78,0,0,1-.57,1.12,1.41,1.41,0,0,0-.26,1.24c.12.42.16.86.24,1.29S35.52,23.72,35.6,24.11ZM28.17,41.47l0-.13-1.48.38-.52.39,0,.09Zm6.28-24.31h.06l.59-.79-.05-.08c-.12,0-.34,0-.36,0A7.88,7.88,0,0,0,34.45,17.16Zm-3.72,19.9v.16c.16,0,.37.07.47,0s.41-.1.6.12l.11-.41Zm-.7.08-.65-.08v.11c.38.3.77,0,1.18,0A.35.35,0,0,0,30,37.14Z"/><path d="M66.13,59.61a2.14,2.14,0,0,1-.25.44c-.7.74-1.41,1.46-2.11,2.19-.12.12-.18.31-.31.41s-.49.49-.75.72-.49.38-.72.59a.93.93,0,0,0-.14.22L61.57,64c.19-.19.35-.37.54-.54.39-.33.8-.63,1.18-1,.17-.16.24-.42.4-.6.37-.41.75-.8,1.13-1.19a1.58,1.58,0,0,1,.35-.16c.14-.23.23-.56.45-.67s.19-.71.67-.66c.07-.4.29-.69.56-.71,0-.09,0-.21,0-.25s.19-.1.29-.14.12.25.08.31q-.45.62-.93,1.2S66.14,59.61,66.13,59.61Z"/><path d="M6.67,14.89l.15.25c-.08.15-.16.3-.25.45s-.26.33-.39.51l-.24-.18c.2.44-.1.63-.28.88s-.34.52-.51.78L5,17.51l.14-.41-.08,0c0-.08-.09-.19-.07-.23.25-.34.52-.66.77-1s.44-.65.66-1c0,0,0-.1,0-.17Z"/><path d="M5.76,50.88l.18-.27c.42.6.84,1.19,1.24,1.8.24.37.45.77.67,1.15h0l-.31-.12-.72-.9-.11.09c-.15-.26-.29-.52-.45-.77,0-.07-.15-.1-.19-.17a3.81,3.81,0,0,0-.24-.32A.41.41,0,0,1,5.76,50.88Z"/><path d="M75.12,41.77a.91.91,0,0,0,.17-.9s0-.11,0-.16a2.68,2.68,0,0,0,.11-.49c0-.47,0-.95.08-1.42,0-.23-.26-.51.19-.72a3.09,3.09,0,0,1,.06.5,12.81,12.81,0,0,0-.1,1.37c0,.55-.17,1.07-.17,1.62,0,.09-.18.19-.27.28Z"/><path d="M12.09,58.21l-.23-.36.05-.05,3.77,2.83,0,.09-.44.05a.33.33,0,0,1,0-.13.48.48,0,0,1,.14-.06l-1.43-1.06-1.52-1.19a1.31,1.31,0,0,0-.27-.12Z"/><path d="M28.78,66.61c-.18.11-.36.31-.49,0l-.5.16c-.06-.07-.1-.18-.17-.2-.3-.1-.61-.17-.92-.26a.51.51,0,0,1-.24-.17s0-.2,0-.2a2,2,0,0,1,.34,0l.39.1,1,.21,0,.11c.21.1.58-.22.64.25Z"/><path d="M60.83,64.53c0,.09.08.15.07.17s-.35.29-.33.39c.07.33-.26.22-.28.29-.09.26-.43.22-.52.52s-.39.35-.51.46L59.11,66Z"/><path d="M.42,32.18l.07.6c-.33,0-.48-.08-.38-.37s.15-.34.21-.52a.24.24,0,0,0,0-.14c-.19-.27-.09-.48.13-.67-.22-.28-.13-.68.1-.72a3.16,3.16,0,0,1,.16.46,1.15,1.15,0,0,1,0,.32c0,.24-.07.48-.12.71A1.42,1.42,0,0,1,.42,32.18Z"/><path d="M62.86,9.35a.88.88,0,0,1,.3.1l1.55,1.46c.05.05.06.15.09.23s-.21,0-.26,0c-.34-.29-.67-.59-1-.91s-.62-.46-.69-.88Z"/><path d="M.36,35l-.07-.21-.07.09L.13,35l-.11,0c0-.16,0-.33,0-.49H.37l-.29-.28V32.9l.36,0,0,.5-.23.07v.06H.44V35Z"/><path d="M53.1,69.9l2.1-1.24.08,0a.69.69,0,0,1-.12.29c-.17.17-.53.15-.51.53,0,0-.1,0-.19,0l.13-.2c-.54.14-.89.63-1.42.68Z"/><path d="M24.55,65.1c.33.13.64.25,1,.35a1.27,1.27,0,0,1,.84.59,5.48,5.48,0,0,1-1-.21C25,65.7,24.59,65.6,24.55,65.1Z"/><path d="M28.93,55.37h2.43c0,.05-.05.15-.08.15a7.14,7.14,0,0,0-.93.08c-.23.06-.49-.15-.54-.1-.2.22-.46.07-.67.16s-.18-.08-.27-.13Z"/><path d="M24.83,55.56c.09-.09.16-.22.23-.22l2,0s.05,0,.15.13a1.67,1.67,0,0,1-.4.13Z"/><path d="M74.86,31.56c.22-.14.36-.16.4.15s.13.85.18,1.27c0,.05-.07.12-.11.18s-.15-.13-.17-.21C75.05,32.5,75,32,74.86,31.56Z"/><path d="M23.83,55.43s-.09.11-.14.11c-.36,0-.72,0-1.08,0l-1.08-.12c0-.17,0-.31.32-.22a4.22,4.22,0,0,0,.8,0c.05,0,.11,0,.14,0,.23.22.49.06.74.07.1,0,.2.1.31.16Z"/><path d="M21.31,4.16V3.85l.25.18c0-.57.61-.25.8-.55l.11.08c-.06.11-.14.31-.18.3-.42-.07-.62.37-1,.41,0,0-.07.07-.11.08l-.57.14-.05-.2A.63.63,0,0,1,21.31,4.16Z"/><path d="M21.43,55.36l-1.6-.09c.08-.21.19-.39.46-.32s.84,0,1.19.26Z"/><path d="M75.56,33.93c0,.23,0,.46,0,.7a.81.81,0,0,1-.11.26c-.06-.06-.17-.12-.18-.19,0-.35-.09-.69-.11-1,0-.09.09-.18.13-.27a1.31,1.31,0,0,1,.21.27.77.77,0,0,1,0,.27Z"/><path d="M58.85,66.17v.43l-1.29.74c0-.09,0-.21,0-.24C58,66.79,58.39,66.5,58.85,66.17Z"/><path d="M60.16,7.05l.92.63.47.36c-.19.14-.28.19-.44,0a4.48,4.48,0,0,0-.7-.51c-.16-.12-.4-.21-.25-.49Z"/><path d="M75.54,36.94c-.2-.2-.08-.45-.11-.68a5.65,5.65,0,0,1,0-.59,2.42,2.42,0,0,1,0-.25c.1,0,.27.07.28.12a6.15,6.15,0,0,1,0,.74c0,.24.06.5-.19.67Z"/><path d="M16.22,6.81h0l-.93.55h0c-.26,0-.26,0-.46-.46a2,2,0,0,0,1.48-.44l.05.09Z"/><path d="M35,77.17,37,77v.15l-2,.23Z"/><path d="M1,28.73c0,.05-.1.09-.1.14-.07.39-.13.79-.2,1.18,0,0-.06.08-.15.11a6.62,6.62,0,0,1,.23-1.77H.86l.09.37Z"/><path d="M26.79,2.36c-.26.1-.45.19-.64.25a7.91,7.91,0,0,1-.81.19.29.29,0,0,1-.17-.06s0-.1,0-.1c.47-.15.93-.29,1.4-.42C26.62,2.21,26.66,2.25,26.79,2.36Z"/><path d="M28.77,66.61l.09-.19c.46.28,1.08,0,1.49.43-.24,0-.59.18-.71.07s-.55.16-.65-.2l-.21.09v-.2Z"/><path d="M59.43,64.87c0,.08,0,.18-.07.23-.32.29-.64.58-1,.85-.06,0-.17,0-.26.06a.63.63,0,0,1,.09-.22c.37-.33.76-.64,1.14-1Z"/><path d="M17.74,62l-1.3-.73,0,.15L16,61.2l.45-.15,1.36.83Z"/><path d="M20.91,63.64c-.17.06-.3-.22-.42,0a.9.9,0,0,0-.68-.32c-.14,0-.25-.24-.36-.38s0-.09,0-.14.13,0,.18,0l.3.17c.31.15.62.28.92.44C20.87,63.47,20.88,63.56,20.91,63.64Z"/><path d="M53.59,3.94c-.24.21-.39-.06-.58-.11a6.81,6.81,0,0,1-.73-.33L52,3.38c.33-.18,1.26.22,1.54.57Z"/><path d="M32.57,55.4c.1,0,.19-.13.29-.13.33,0,.67,0,1,0,0,.25,0,.25-.29.27s-.61-.13-.89.07l-.11-.2Z"/><path d="M51.8,70.26,50.4,71s-.13,0-.14,0,0-.16,0-.17l1.3-.61S51.66,70.21,51.8,70.26Z"/><path d="M23.29,3.25l1.54-.53.16.21L24.73,3c-.37.12-.73.25-1.11.35-.09,0-.22-.07-.33-.11Z"/><path d="M59.17,6.53c.08,0,.19-.09.24,0,.26.18.5.38.75.57h0c-.07,0-.17.14-.2.11a8,8,0,0,1-.78-.51s0-.08,0-.13Z"/><path d="M39.47,51.33a2.3,2.3,0,0,1,.35-.1c.29,0,.58-.06.87-.08.05,0,.11.06.16.09s-.07.18-.11.18H39.51Z"/><path d="M48.65,1.81,50,2.24l0,.1c-.09,0-.19.15-.25.13-.35-.13-.69-.29-1-.44a1.22,1.22,0,0,1-.19-.12Z"/><path d="M75.36,42.27l-.21,1.29h-.1c0-.08-.09-.16-.08-.23C75.13,42.38,75.13,42.38,75.36,42.27Z"/><path d="M72.1,21.76l-.16-.44,0-.27L72,21a1.49,1.49,0,0,1,.23.28,3.13,3.13,0,0,1,.16.52c0,.07,0,.15,0,.23l-.18-.17Z"/><path d="M56.55,67.75c.31-.14.52-.46.93-.49l0,.36-.83.28Z"/><path d="M55.88,68.67l-.23-.35.78-.46.09.12Z"/><path d="M6.83,52.53l.72.9c0,.16-.06.28-.18.13A1.65,1.65,0,0,1,6.83,52.53Z"/><path d="M71.69,20.57c-.09-.15-.17-.27-.24-.41s-.18-.37-.26-.56,0-.12,0-.18.13,0,.15,0l.45,1Z"/><path d="M35.71,55.49c-.35-.2-.78.14-1.08-.21,0,0,0-.08,0-.07a3,3,0,0,0,.73-.08C35.61,55.11,35.75,55.21,35.71,55.49Z"/><path d="M22.06,64.17l-.39.06a.34.34,0,0,0-.49-.27.27.27,0,0,1-.13,0,.92.92,0,0,1,0-.36C21.32,63.94,21.86,63.71,22.06,64.17Z"/><path d="M61.77,64.18l-.65.61a.54.54,0,0,1,.24-.72C61.44,64,61.62,64.14,61.77,64.18Z"/><path d="M18.68,5.64l-.1.08-.48-.2v-.1l.66-.34Z"/><path d="M38.37,51.39a4.4,4.4,0,0,1,.51,0,.44.44,0,0,1,.21.07c-.06.05-.12.12-.19.13a2.25,2.25,0,0,1-.52.07,1.11,1.11,0,0,1-.32-.11l.29-.16Z"/><path d="M55.31,68.1l-.86.56-.11-.18.88-.52Z"/><path d="M62.87,9.34c-.53-.06-.71-.23-.67-.62a1,1,0,0,1,.66.63Z"/><path d="M37.22,51.46c.2,0,.4-.06.6-.07s.12.06.18.09-.1.12-.15.12a6.85,6.85,0,0,1-.78.07s-.09-.08-.13-.13l.26-.14Z"/><path d="M37.55,55.39c0-.39.19-.48.55-.31a.88.88,0,0,1,0-.16l.26.13v.14Z"/><path d="M23.36,64.83,23,64.74l0,0,.26,0c0-.07,0-.15,0-.22l.83.29V65l-.7,0-.12.15Z"/><path d="M23.84,55.44s0-.12,0-.12h1a.83.83,0,0,1-1,.11Z"/><path d="M33.58,51.65l.92-.09c-.07.3-.47.37-.9.21Z"/><path d="M75.53,37s.1,0,.13,0a.62.62,0,0,1,0,.73c-.3-.33-.32-.45-.09-.74Z"/><path d="M4.16,19.25a.35.35,0,0,1,.1-.5c.06,0,0-.16.1-.22a.38.38,0,0,1,.16-.15s.11,0,.11.05a.51.51,0,0,1-.06.21q-.2.3-.42.6Z"/><path d="M.15,35l.13.29L.47,35l.05.64-.1,0c0-.3-.54-.25-.39-.64Z"/><path d="M36.82,51.66a5.86,5.86,0,0,1-.64.06,3.21,3.21,0,0,1-.43-.07,1.61,1.61,0,0,1,.36-.1C36.32,51.52,36.56,51.33,36.82,51.66Z"/><path d="M43.51,51c-.1.11-.14.21-.21.22a4.15,4.15,0,0,1-.61,0s0-.11,0-.14a.26.26,0,0,1,.16-.1C43,50.94,43.21,51,43.51,51Z"/><path d="M19.79,4.5c.17.15.52-.3.61.2l-.59.24Z"/><path d="M70.42,18.16l-.31-.69a1.27,1.27,0,0,1,.16-.06c.12.18.22.36.32.54S70.52,18,70.42,18.16Z"/><path d="M61.94,62.43l0-.11.36-.22c.08.31,0,.47-.57.72Z"/><path d="M32.57,55.4a.45.45,0,0,1-.76,0,.65.65,0,0,1,.76,0Z"/><path d="M.23,35.86c0,.29,0,.59,0,.89,0,0-.06.08-.09.08s-.09,0-.09-.07c0-.3,0-.6,0-.9Z"/><path d="M3.19,42.06l.19,1.06-.12,0c-.09-.29-.18-.58-.25-.87C3,42.25,3.09,42.19,3.19,42.06Z"/><path d="M48.39,72.84l-.75.37A.46.46,0,0,1,48.39,72.84Z"/><path d="M2.83,40.16,3,41.21A.87.87,0,0,1,2.83,40.16Z"/><path d="M31.36,51.64a.64.64,0,0,1-.76.25.14.14,0,0,1-.06-.13.16.16,0,0,1,.12-.09c.11,0,.22,0,.33,0Z"/><path d="M47.49,73.09c-.12.35-.47.28-.65.48C46.76,73.23,46.86,73.16,47.49,73.09Z"/><path d="M28.26,51.75l.75-.07s.08.07.08.09-.05.13-.08.13h-.74Z"/><path d="M28.63,55.7c-.3-.08-.61,0-.86-.33C28.1,55.51,28.47,55.16,28.63,55.7Z"/><path d="M62.15,8.68a1.89,1.89,0,0,1-.23,0,1.59,1.59,0,0,1-.27-.18s-.12-.06-.14-.11a.2.2,0,0,1,.06-.15s.15,0,.18,0,.29.25.43.38Z"/><path d="M26.92,52l.1-.32a2.84,2.84,0,0,1,.42,0c.06,0,.14.06.14.1s0,.14-.1.14A5.3,5.3,0,0,1,26.92,52Z"/><path d="M50.53,2.76c.21-.19.55-.11.82.16C51,3.07,50.81,2.82,50.53,2.76Z"/><path d="M36.59,55.42c-.16-.26-.65.23-.66-.31h.64Z"/><path d="M13.93,48.87h0a3.11,3.11,0,0,0,0-.32l.39,0v0C14.32,48.85,14.26,48.92,13.93,48.87Z"/><path d="M2.37,22.58c.14.2,0,.75-.08.79s-.15-.08-.14-.1C2.21,23.06,2.28,22.86,2.37,22.58Z"/><path d="M25,51.83l-.61,0s-.06-.09-.05-.14a.16.16,0,0,1,.11-.1c.18,0,.36,0,.53,0Z"/><path d="M4.15,19.24c-.06.46-.21.64-.56.61.26-.17.13-.64.57-.6Z"/><path d="M23.29,3.24c0,.3-.16.39-.43.36-.05,0-.1-.07-.15-.1s.07-.15.13-.17a3.25,3.25,0,0,1,.45-.08Z"/><path d="M5,17.59c.12.23.12.23-.21.7C4.56,18.05,4.57,18,5,17.59Z"/><path d="M36.1,50.66l.39-.27.12.21-.42.21Z"/><path d="M3.3,20.44a3.85,3.85,0,0,1,.24-.4S3.66,20,3.7,20a.21.21,0,0,1,.06.17A.34.34,0,0,1,3.3,20.44Z"/><path d="M32.6,51.64h.54s.09.07.14.11a.67.67,0,0,1-.14.11C32.89,51.93,32.64,51.84,32.6,51.64Z"/><path d="M25.78,51.66c-.15.2-.56.28-.67.17s-.05-.09,0-.11.1-.11.15-.11.16,0,.24,0Z"/><path d="M26.5,51.9a.86.86,0,0,1-.23,0,2.14,2.14,0,0,1-.34-.09s0-.11,0-.11a2,2,0,0,1,.42,0c.06,0,.12.09.18.14Z"/><path d="M8.33,54.17c-.23,0-.53-.42-.47-.62h0l.08-.06.39.68Z"/><path d="M50,71.2l-.6.29-.07-.13.58-.33Z"/><path d="M3.25,42,3.1,41h.07l.22,1Z"/><path d="M31.7,51.68l.59,0s.09.08.09.12a.16.16,0,0,1-.1.11l-.59-.08Z"/><path d="M3.15,20l.42-.69.13.08-.43.7Z"/><path d="M3.79,18.84l.38-.58C4.28,18.53,4.14,18.78,3.79,18.84Z"/><path d="M53.58,4c.23-.05.37,0,.56.25-.29.1-.47,0-.55-.26Z"/><path d="M16.93,5.79c.17-.19.27-.48.7-.34L17,5.9Z"/><path d="M8.32,54.18a.56.56,0,0,1,.46.67l-.45-.68Z"/><path d="M59.17,6.53v0c-.07,0-.15,0-.19,0a1.9,1.9,0,0,1-.25-.24,1,1,0,0,1,.18-.07c.16,0,.28,0,.25.25Z"/><path d="M18.13,62.18c.38-.08.67.16.59.44Z"/><path d="M6,50l.44.75-.08,0c-.16-.25-.43-.44-.46-.76Z"/><path d="M68,13.93l.49.67C68.27,14.68,68,14.32,68,13.93Z"/><path d="M27.13,55.41h.63C27.57,55.75,27.47,55.75,27.13,55.41Z"/><path d="M2.57,21.47l-.3.66-.13-.06.3-.67Z"/><path d="M19.29,5.26l-.07-.57.45.07Z"/><path d="M36.45,0h.92V.08h-.92Z"/><path d="M75.06,43.83c0,.21-.07.42-.12.62,0,0-.07,0-.11,0s-.07,0-.06-.06c0-.21.1-.42.16-.64Z"/><path d="M5.58,49.18l.28.73-.11,0-.32-.71Z"/><path d="M57.69,5.35c-.26.19-.38-.08-.64-.16C57.41,4.88,57.47,5.41,57.69,5.35Z"/><path d="M58.28,5.61c-.37.25-.46.22-.52-.19Z"/><path d="M70,17.27l-.3-.48.14-.08.3.48Z"/><path d="M48.73,71.64s0-.08.05-.08.29-.08.43-.12,0,.11,0,.12l-.44.19Z"/><path d="M48.05,72.16a1.41,1.41,0,0,1,.18-.29.54.54,0,0,1,.22-.09s.07.09,0,.11a.69.69,0,0,1-.17.17,1.4,1.4,0,0,1-.29.09Z"/><path d="M35.23,51.59l.52-.12c-.09.16-.12.29-.17.3a1.49,1.49,0,0,1-.36-.05Z"/><path d="M61.33,63.29l-.38.45-.12-.08.35-.48Z"/><path d="M11.46,57.56,11,57.13l.08-.08a1.06,1.06,0,0,1,.52.43Z"/><path d="M41.64,51.26a.28.28,0,0,1-.47.05l0-.13.46,0Z"/><path d="M12.08,58.21l.07.17-.05,0-.79-.69,0,0,.74.53Z"/><text class="cls-1" transform="translate(90.27 53.08)">innov<tspan class="cls-2" x="115.58" y="0">ensō</tspan></text></svg>